<svg xmlns="http://www.w3.org/2000/svg" width="1440" height="707" fill="none"><g stroke="#3F83F8" stroke-width=".283" clip-path="url(#a)"><path d="M139.924 367.792c0 89.765 19.144 171.025 50.088 229.839 30.947 58.82 73.676 95.154 120.835 95.154 47.159 0 89.888-36.334 120.835-95.154 30.944-58.814 50.088-140.074 50.088-229.839 0-89.766-19.144-171.026-50.088-229.84-30.947-58.82-73.676-95.154-120.835-95.154-47.159 0-89.888 36.334-120.836 95.154-30.943 58.814-50.087 140.074-50.087 229.84z" opacity=".8"/><path d="M310.417 538.397c89.765 0 171.025-19.143 229.839-50.087 58.82-30.948 95.154-73.676 95.154-120.836 0-47.159-36.334-89.888-95.154-120.835-58.814-30.944-140.074-50.087-229.839-50.087-89.766 0-171.026 19.143-229.84 50.087-58.82 30.947-95.154 73.676-95.154 120.835 0 47.16 36.334 89.888 95.154 120.836 58.814 30.944 140.074 50.087 229.84 50.087z" opacity=".8"/><path d="M189.861 247.237C126.387 310.71 82.464 381.706 62.757 445.175 43.048 508.65 47.57 564.556 80.917 597.902c33.346 33.347 89.252 37.869 152.727 18.16 63.468-19.707 134.465-63.631 197.938-127.104 63.474-63.474 107.397-134.47 127.104-197.938 19.71-63.476 15.188-119.382-18.159-152.728-33.347-33.347-89.252-37.869-152.728-18.159-63.468 19.707-134.464 63.63-197.938 127.104z" opacity=".8"/><path d="M189.782 488.428c63.474 63.474 134.47 107.397 197.939 127.104 63.475 19.709 119.381 15.187 152.727-18.159 33.347-33.347 37.869-89.253 18.16-152.728-19.707-63.468-63.631-134.465-127.104-197.938-63.474-63.474-134.47-107.397-197.939-127.104-63.475-19.71-119.381-15.188-152.727 18.159-33.347 33.347-37.869 89.252-18.16 152.728 19.707 63.468 63.631 134.464 127.104 197.938z" opacity=".8"/><path d="M245.155 210.352c-82.932 34.352-150.68 83.135-193.176 134.23-42.5 51.102-59.716 104.482-41.67 148.052 18.048 43.569 67.968 69.141 134.153 75.223 66.179 6.081 148.58-7.329 231.512-41.681 82.932-34.352 150.681-83.135 193.176-134.23 42.5-51.102 59.717-104.482 41.67-148.052-18.047-43.569-67.967-69.141-134.153-75.223-66.179-6.081-148.579 7.329-231.512 41.681z" opacity=".8"/><path d="M152.784 433.157c34.351 82.932 83.135 150.681 134.23 193.176 51.101 42.5 104.482 59.717 148.051 41.67 43.57-18.047 69.142-67.967 75.224-134.153 6.081-66.179-7.33-148.579-41.681-231.512-34.352-82.932-83.135-150.681-134.231-193.176-51.101-42.5-104.482-59.716-148.051-41.67-43.57 18.048-69.141 67.968-75.223 134.154-6.082 66.178 7.329 148.579 41.681 231.511z" opacity=".8"/><path d="M375.814 210.233c-82.933-34.352-165.333-47.763-231.512-41.681-66.186 6.082-116.105 31.653-134.153 75.223-18.047 43.57-.83 96.95 41.67 148.051 42.495 51.096 110.244 99.879 193.176 134.231 82.933 34.351 165.333 47.762 231.512 41.681 66.186-6.082 116.106-31.654 134.153-75.224 18.047-43.569.83-96.95-41.67-148.051-42.495-51.095-110.244-99.879-193.176-134.23z" opacity=".8"/><path d="M152.95 302.461c-34.352 82.932-47.763 165.332-41.682 231.511 6.082 66.186 31.654 116.106 75.224 134.153 43.569 18.047 96.95.83 148.051-41.67 51.096-42.495 99.879-110.244 134.23-193.176 34.352-82.932 47.763-165.333 41.682-231.512-6.082-66.185-31.654-116.105-75.224-134.152-43.569-18.047-96.95-.83-148.051 41.669-51.096 42.495-99.879 110.244-134.23 193.177z" opacity=".8"/><path d="M140.084 360.354c-3.915 89.68 11.665 171.698 40.014 231.806 28.352 60.114 69.456 98.277 116.57 100.334 47.115 2.057 91.387-32.378 124.871-89.793 33.48-57.408 56.15-137.756 60.065-227.436 3.916-89.68-11.665-171.698-40.014-231.805-28.352-60.115-69.455-98.278-116.57-100.335-47.114-2.057-91.387 32.379-124.871 89.793-33.48 57.408-56.149 137.756-60.065 227.436z" opacity=".8"/><path d="M302.976 538.232c89.68 3.916 171.698-11.665 231.806-40.014 60.114-28.352 98.277-69.455 100.334-116.57 2.057-47.114-32.378-91.387-89.793-124.871-57.408-33.479-137.756-56.149-227.436-60.065-89.68-3.915-171.698 11.666-231.805 40.014-60.115 28.353-98.278 69.456-100.335 116.57-2.057 47.115 32.379 91.388 89.793 124.871 57.408 33.48 137.756 56.15 227.436 60.065z" opacity=".8"/><path d="M195.235 242.087c-66.182 60.645-113.16 129.658-135.617 192.206-22.459 62.555-20.38 118.605 11.48 153.374 31.861 34.77 87.516 41.726 151.791 24.804 64.267-16.919 137.112-57.704 203.294-118.349 66.182-60.644 113.16-129.657 135.617-192.205 22.459-62.555 20.38-118.605-11.481-153.375-31.86-34.769-87.515-41.725-151.79-24.804-64.267 16.92-137.112 57.705-203.294 118.349z" opacity=".8"/><path d="M184.635 483.049c60.645 66.182 129.658 113.16 192.206 135.617 62.555 22.459 118.605 20.38 153.374-11.48 34.77-31.861 41.726-87.516 24.804-151.791-16.92-64.267-57.704-137.111-118.349-203.293-60.645-66.182-129.657-113.161-192.205-135.617-62.556-22.46-118.605-20.38-153.375 11.48-34.77 31.86-41.726 87.515-24.804 151.79 16.92 64.267 57.705 137.112 118.349 203.294z" opacity=".8"/><path d="M252.088 207.653c-84.352 30.701-154.164 76.483-198.847 125.676C8.552 382.528-10.976 435.107 5.153 479.422c16.13 44.315 64.886 72.04 130.744 81.003 65.85 8.963 148.757-.841 233.109-31.543 84.352-30.701 154.164-76.483 198.848-125.676 44.688-49.199 64.217-101.778 48.088-146.093-16.13-44.315-64.887-72.04-130.744-81.003-65.851-8.963-148.758.841-233.11 31.543z" opacity=".8"/><path d="M150.084 426.216c30.702 84.352 76.484 154.164 125.677 198.848 49.199 44.688 101.777 64.217 146.093 48.088 44.315-16.13 72.04-64.887 81.003-130.744 8.962-65.851-.841-148.758-31.543-233.11-30.702-84.352-76.483-154.164-125.676-198.847-49.199-44.689-101.778-64.217-146.093-48.088-44.315 16.13-72.04 64.886-81.004 130.744-8.962 65.85.842 148.757 31.543 233.109z" opacity=".8"/><path d="M382.626 213.232c-81.355-37.936-163.093-54.928-229.473-51.739-66.389 3.189-117.376 26.559-137.307 69.3-19.93 42.741-5.058 96.821 35.172 149.728 40.226 52.9 105.783 104.592 187.138 142.529 81.355 37.936 163.092 54.928 229.473 51.739 66.388-3.189 117.376-26.559 137.306-69.3 19.93-42.741 5.059-96.821-35.172-149.728-40.226-52.9-105.782-104.592-187.137-142.529z" opacity=".8"/><path d="M155.949 295.653c-37.936 81.355-54.928 163.092-51.74 229.473 3.19 66.388 26.56 117.376 69.301 137.306 42.74 19.93 96.821 5.059 149.728-35.172 52.9-40.226 104.592-105.782 142.528-187.137 37.937-81.355 54.929-163.093 51.74-229.473-3.189-66.389-26.559-117.376-69.3-137.307-42.741-19.93-96.822-5.058-149.728 35.172-52.9 40.226-104.592 105.783-142.529 187.138z" opacity=".8"/><path d="M140.574 352.926c-7.824 89.424 4.164 172.043 29.865 233.33 25.703 61.294 65.102 101.214 112.082 105.324 46.98 4.11 92.713-28.361 128.669-84.261 35.952-55.893 62.105-135.175 69.928-224.599 7.824-89.424-4.165-172.044-29.865-233.33C425.55 88.096 386.151 48.176 339.171 44.066c-46.98-4.11-92.713 28.361-128.669 84.261-35.952 55.893-62.105 135.175-69.928 224.599z" opacity=".8"/><path d="M295.551 537.742c89.424 7.823 172.043-4.165 233.33-29.865 61.294-25.703 101.214-65.103 105.324-112.083 4.11-46.979-28.361-92.712-84.261-128.668-55.893-35.952-135.175-62.105-224.599-69.929-89.424-7.823-172.044 4.165-233.33 29.865C30.72 252.765-9.2 292.165-13.31 339.144c-4.11 46.98 28.361 92.713 84.26 128.669 55.894 35.952 135.176 62.105 224.6 69.929z" opacity=".8"/><path d="M200.829 237.18C132.064 294.88 82.12 361.778 56.957 423.287 31.79 484.803 31.422 540.89 61.736 577.016c30.313 36.126 85.612 45.504 150.564 31.402 64.944-14.101 139.498-51.669 208.263-109.369 68.764-57.7 118.708-124.598 143.871-186.107 25.167-61.516 25.535-117.604-4.779-153.73-30.313-36.126-85.612-45.503-150.564-31.401-64.944 14.1-139.498 51.669-208.262 109.369z" opacity=".8"/><path d="M179.731 477.45c57.7 68.764 124.598 118.708 186.107 143.871 61.516 25.167 117.603 25.535 153.729-4.779 36.126-30.313 45.503-85.612 31.401-150.564-14.1-64.944-51.669-139.498-109.369-208.262-57.7-68.765-124.598-118.708-186.107-143.872-61.516-25.166-117.603-25.534-153.729 4.779-36.126 30.314-45.503 85.612-31.401 150.564 14.1 64.944 51.669 139.498 109.369 208.263z" opacity=".8"/><path d="M259.13 205.26c-85.611 26.993-157.353 69.686-204.14 116.883C8.198 369.346-13.606 421.023.575 465.999c14.182 44.977 61.683 74.802 127.087 86.629 65.396 11.827 148.652 5.648 234.263-21.345 85.611-26.992 157.354-69.685 204.14-116.883 46.792-47.202 68.596-98.879 54.415-143.856-14.181-44.977-61.683-74.802-127.087-86.629-65.396-11.826-148.652-5.648-234.263 21.345z" opacity=".8"/><path d="M147.689 419.163c26.993 85.611 69.685 157.353 116.883 204.14 47.202 46.792 98.879 68.595 143.856 54.414 44.977-14.181 74.802-61.682 86.629-127.086 11.826-65.396 5.648-148.652-21.345-234.263-26.993-85.611-69.686-157.354-116.883-204.14-47.203-46.792-98.879-68.596-143.856-54.415-44.977 14.181-74.802 61.683-86.629 127.087-11.826 65.396-5.648 148.652 21.345 234.263z" opacity=".8"/><path d="M389.299 216.525c-79.622-41.449-160.541-61.99-226.997-61.7-66.465.29-118.423 21.414-140.199 63.245-21.776 41.831-9.277 96.509 28.608 151.12 37.88 54.604 101.119 109.107 180.742 150.556 79.623 41.449 160.541 61.99 226.998 61.7 66.464-.291 118.422-21.414 140.198-63.245 21.776-41.831 9.277-96.509-28.607-151.12-37.88-54.605-101.12-109.107-180.743-150.556z" opacity=".8"/><path d="M159.244 288.979c-41.449 79.623-61.99 160.541-61.7 226.998.29 66.464 21.414 118.422 63.245 140.198 41.831 21.776 96.509 9.277 151.119-28.607 54.605-37.88 109.107-101.12 150.556-180.743 41.449-79.623 61.991-160.541 61.7-226.997-.29-66.465-21.414-118.423-63.245-140.199-41.83-21.776-96.508-9.277-151.119 28.607-54.605 37.881-109.107 101.12-150.556 180.743z" opacity=".8"/><path d="M141.386 345.528c-11.717 88.998-3.344 172.061 19.659 234.411 23.005 62.357 60.625 103.957 107.381 110.112 46.756 6.156 93.862-24.29 132.222-78.568 38.356-54.271 67.942-132.338 79.659-221.335 11.716-88.998 3.343-172.061-19.659-234.411C437.643 93.38 400.022 51.78 353.266 45.625c-46.755-6.156-93.861 24.29-132.221 78.568-38.356 54.271-67.942 132.338-79.659 221.335z" opacity=".8"/><path d="M288.153 536.93c88.998 11.716 172.061 3.343 234.411-19.659 62.357-23.005 103.957-60.626 110.112-107.382 6.156-46.756-24.29-93.861-78.568-132.221-54.271-38.356-132.338-67.943-221.335-79.659-88.998-11.717-172.061-3.344-234.411 19.658C36.005 240.672-5.595 278.293-11.75 325.049c-6.156 46.756 24.29 93.862 78.568 132.222 54.271 38.356 132.338 67.942 221.335 79.659z" opacity=".8"/><path d="M206.632 232.522c-71.216 54.645-124.03 119.301-151.853 179.654-27.826 60.36-30.64 116.377-1.93 153.791 28.708 37.414 83.545 49.195 149.05 37.939 65.498-11.254 141.619-45.535 212.835-100.18 71.216-54.646 124.03-119.302 151.853-179.655 27.826-60.359 30.64-116.377 1.931-153.791s-83.546-49.194-149.051-37.939c-65.498 11.254-141.619 45.535-212.835 100.181z" opacity=".8"/><path d="M175.07 471.64c54.646 71.215 119.302 124.03 179.655 151.852 60.359 27.826 116.377 30.64 153.791 1.931s49.195-83.546 37.939-149.051c-11.254-65.497-45.535-141.619-100.18-212.835-54.646-71.215-119.302-124.03-179.655-151.852-60.359-27.826-116.377-30.64-153.791-1.931-37.414 28.708-49.194 83.546-37.939 149.05 11.254 65.498 45.535 141.62 100.18 212.836z" opacity=".8"/><path d="M266.269 203.173c-86.706 23.233-160.243 62.756-209.044 107.867C8.42 356.157-15.618 406.834-3.412 452.386c12.205 45.552 58.36 77.421 123.186 92.09 64.819 14.668 148.265 12.127 234.972-11.106 86.706-23.233 160.243-62.756 209.044-107.868 48.806-45.116 72.843-95.793 60.637-141.345-12.205-45.553-58.36-77.422-123.186-92.091-64.819-14.667-148.265-12.126-234.972 11.107z" opacity=".8"/><path d="M145.604 412.015c23.233 86.706 62.756 160.243 107.868 209.044 45.116 48.806 95.793 72.843 141.346 60.637 45.552-12.205 77.421-58.36 92.09-123.186 14.667-64.819 12.127-148.265-11.106-234.971-23.233-86.707-62.756-160.244-107.868-209.045-45.116-48.806-95.793-72.843-141.346-60.637-45.552 12.206-77.421 58.36-92.09 123.186-14.667 64.819-12.127 148.265 11.106 234.972z" opacity=".8"/><path d="M395.822 220.109c-77.739-44.883-157.684-68.934-224.09-71.543-66.414-2.609-119.244 16.228-142.824 57.069-23.58 40.841-13.478 96.013 21.988 152.224C86.36 414.064 147.16 471.273 224.9 516.155c77.739 44.883 157.684 68.935 224.09 71.543 66.414 2.609 119.244-16.228 142.824-57.069 23.579-40.841 13.478-96.012-21.989-152.224-35.462-56.205-96.264-113.414-174.003-158.296z" opacity=".8"/><path d="M162.827 282.457c-44.883 77.739-68.935 157.684-71.543 224.091-2.61 66.413 16.228 119.244 57.069 142.823 40.841 23.58 96.012 13.478 152.224-21.988 56.205-35.462 113.414-96.264 158.296-174.003 44.883-77.739 68.934-157.685 71.543-224.091 2.609-66.413-16.228-119.244-57.069-142.823-40.841-23.58-96.013-13.478-152.224 21.988-56.205 35.462-113.414 96.264-158.296 174.003z" opacity=".8"/><path d="M142.518 338.176c-15.588 88.401-10.846 171.751 9.415 235.045 20.263 63.301 56.034 106.502 102.476 114.692 46.443 8.189 94.832-20.174 135.523-72.726 40.687-52.547 73.65-129.249 89.238-217.651 15.588-88.401 10.846-171.751-9.415-235.045-20.263-63.3-56.034-106.502-102.476-114.691-46.443-8.19-94.832 20.173-135.523 72.726-40.687 52.546-73.65 129.248-89.238 217.65z" opacity=".8"/><path d="M280.797 535.793c88.401 15.588 171.751 10.846 235.045-9.415 63.301-20.263 106.502-56.033 114.692-102.476 8.189-46.443-20.173-94.832-72.726-135.523-52.547-40.687-129.249-73.65-217.65-89.237-88.402-15.588-171.752-10.846-235.046 9.415C41.812 228.82-1.39 264.59-9.579 311.033c-8.19 46.443 20.173 94.832 72.726 135.523 52.547 40.687 129.248 73.65 217.65 89.237z" opacity=".8"/><path d="M212.63 228.122C139.099 279.61 83.514 341.9 53.086 400.982c-30.433 59.088-35.687 114.93-8.638 153.561 27.05 38.63 81.321 52.791 147.254 44.404 65.926-8.387 143.471-39.314 217.003-90.802 73.531-51.487 129.115-113.777 159.544-172.859 30.432-59.089 35.687-114.93 8.638-153.561-27.05-38.631-81.321-52.792-147.255-44.404-65.926 8.386-143.47 39.314-217.002 90.801z" opacity=".8"/><path d="M170.673 465.635c51.487 73.532 113.778 129.116 172.86 159.545 59.088 30.432 114.93 35.687 153.56 8.638 38.631-27.05 52.792-81.321 44.405-147.255-8.387-65.926-39.314-143.47-90.802-217.002-51.487-73.531-113.777-129.116-172.859-159.545-59.089-30.432-114.93-35.687-153.561-8.637-38.63 27.049-52.792 81.321-44.404 147.254 8.386 65.926 39.314 143.471 90.801 217.002z" opacity=".8"/><path d="M273.493 201.402c-87.637 19.429-162.828 55.706-213.55 98.646-50.728 42.945-76.952 92.525-66.745 138.567 10.207 46.041 54.928 79.893 119.052 97.375 64.117 17.481 147.595 18.583 235.232-.846 87.638-19.429 162.829-55.706 213.551-98.646 50.728-42.945 76.952-92.525 66.745-138.567-10.207-46.041-54.928-79.893-119.052-97.376-64.117-17.48-147.595-18.582-235.233.847z" opacity=".8"/><path d="M143.834 404.78c19.428 87.638 55.706 162.828 98.646 213.55 42.945 50.728 92.525 76.953 138.566 66.746 46.042-10.208 79.893-54.928 97.376-119.053 17.481-64.117 18.583-147.594-.846-235.232s-55.707-162.828-98.647-213.55c-42.944-50.728-92.524-76.953-138.566-66.746-46.041 10.208-79.893 54.928-97.376 119.053-17.481 64.117-18.582 147.594.847 235.232z" opacity=".8"/><path d="M402.182 223.972c-75.707-48.231-154.527-75.747-220.756-81.25-66.237-5.503-119.839 11.012-145.177 50.785-25.339 39.774-17.653 95.334 15.327 153.038 32.977 57.699 91.226 117.505 166.933 165.736 75.707 48.231 154.527 75.747 220.757 81.25 66.236 5.503 119.838-11.012 145.177-50.786 25.338-39.773 17.653-95.333-15.328-153.037-32.977-57.699-91.225-117.505-166.933-165.736z" opacity=".8"/><path d="M166.691 276.098c-48.231 75.707-75.747 154.527-81.25 220.756-5.503 66.237 11.011 119.839 50.785 145.177 39.774 25.339 95.333 17.654 153.038-15.327C346.963 593.727 406.769 535.479 455 459.771c48.231-75.707 75.747-154.527 81.249-220.756 5.504-66.237-11.011-119.839-50.785-145.177-39.774-25.34-95.333-17.653-153.038 15.327-57.698 32.977-117.505 91.225-165.735 166.933z" opacity=".8"/><path d="M143.972 330.878c-19.429 87.637-18.327 171.115-.846 235.232 17.482 64.124 51.334 108.845 97.376 119.052 46.041 10.207 95.621-16.017 138.566-66.745 42.94-50.722 79.217-125.913 98.646-213.551 19.429-87.637 18.327-171.115.847-235.232-17.483-64.124-51.335-108.845-97.376-119.052-46.042-10.207-95.622 16.017-138.567 66.745-42.94 50.722-79.217 125.913-98.646 213.551z" opacity=".8"/><path d="M273.497 534.339c87.637 19.428 171.115 18.327 235.232.846 64.124-17.483 108.845-51.335 119.052-97.376 10.207-46.042-16.017-95.622-66.745-138.566-50.722-42.94-125.913-79.218-213.55-98.647-87.638-19.428-171.115-18.327-235.233-.846C48.129 217.233 3.408 251.084-6.799 297.126c-10.207 46.041 16.017 95.621 66.745 138.566 50.722 42.94 125.913 79.218 213.551 98.647z" opacity=".8"/><path d="M218.817 223.985C143.11 272.216 84.861 332.022 51.885 389.721c-32.981 57.705-40.667 113.264-15.328 153.038 25.339 39.774 78.941 56.288 145.177 50.785 66.229-5.503 145.049-33.019 220.757-81.25 75.707-48.23 133.956-108.037 166.933-165.735 32.98-57.705 40.666-113.265 15.327-153.038-25.339-39.774-78.941-56.289-145.177-50.785-66.229 5.502-145.049 33.018-220.757 81.249z" opacity=".8"/><path d="M166.537 459.444c48.231 75.708 108.037 133.956 165.736 166.933 57.704 32.981 113.264 40.666 153.038 15.328 39.773-25.339 56.288-78.941 50.785-145.178-5.503-66.229-33.019-145.049-81.25-220.756S346.809 141.815 289.11 108.838c-57.704-32.98-113.264-40.666-153.038-15.327-39.773 25.338-56.288 78.94-50.785 145.177 5.503 66.229 33.019 145.049 81.25 220.756z" opacity=".8"/><path d="M280.785 199.947c-88.402 15.588-165.103 48.551-217.65 89.238-52.553 40.691-80.915 89.08-72.726 135.523 8.19 46.443 51.39 82.213 114.691 102.476 63.294 20.261 146.644 25.003 235.046 9.415 88.401-15.588 165.103-48.551 217.65-89.238 52.553-40.691 80.915-89.08 72.726-135.523-8.189-46.442-51.391-82.213-114.692-102.476-63.293-20.261-146.643-25.003-235.045-9.415z" opacity=".8"/><path d="M142.379 397.476c15.587 88.401 48.551 165.103 89.237 217.65 40.692 52.553 89.08 80.915 135.523 72.726 46.443-8.189 82.213-51.391 102.477-114.692 20.26-63.293 25.002-146.643 9.415-235.045-15.588-88.402-48.551-165.103-89.238-217.65-40.691-52.553-89.08-80.915-135.523-72.726-46.443 8.19-82.213 51.39-102.476 114.692-20.261 63.293-25.003 146.643-9.415 235.045z" opacity=".8"/><path d="M408.37 228.107c-73.531-51.487-151.076-82.415-217.002-90.801-65.934-8.388-120.205 5.773-147.254 44.404-27.05 38.631-21.795 94.472 8.637 153.561 30.429 59.082 86.013 121.372 159.545 172.859 73.531 51.488 151.076 82.415 217.002 90.802 65.934 8.387 120.205-5.774 147.254-44.405 27.05-38.63 21.795-94.472-8.637-153.56-30.429-59.082-86.013-121.373-159.545-172.86z" opacity=".8"/><path d="M170.826 269.912c-51.487 73.532-82.415 151.076-90.802 217.002-8.387 65.934 5.774 120.205 44.405 147.255 38.63 27.049 94.472 21.794 153.561-8.638 59.081-30.429 121.372-86.013 172.859-159.544 51.487-73.532 82.415-151.077 90.802-217.003 8.387-65.933-5.774-120.205-44.405-147.254-38.63-27.05-94.472-21.795-153.561 8.638-59.082 30.428-121.372 86.013-172.859 159.544z" opacity=".8"/><path d="M145.74 323.649c-23.233 86.707-25.773 170.153-11.106 234.972 14.669 64.826 46.538 110.981 92.09 123.186 45.553 12.206 96.23-11.831 141.346-60.637 45.112-48.801 84.635-122.338 107.868-209.045 23.233-86.706 25.773-170.152 11.106-234.971-14.669-64.826-46.538-110.98-92.09-123.186-45.553-12.206-96.23 11.83-141.346 60.637-45.112 48.801-84.635 122.338-107.868 209.044z" opacity=".8"/><path d="M266.27 532.567c86.706 23.233 170.152 25.774 234.971 11.106 64.826-14.669 110.981-46.537 123.186-92.09 12.206-45.552-11.831-96.229-60.637-141.346-48.801-45.111-122.338-84.634-209.044-107.867-86.707-23.233-170.153-25.774-234.972-11.106-64.826 14.669-110.98 46.538-123.186 92.09-12.206 45.552 11.83 96.229 60.637 141.346 48.801 45.111 122.338 84.634 209.045 107.867z" opacity=".8"/><path d="M225.177 220.123C147.438 265.006 86.637 322.215 51.174 378.42 15.708 434.631 5.606 489.802 29.186 530.643c23.58 40.841 76.41 59.679 142.823 57.07 66.406-2.609 146.352-26.661 224.091-71.543 77.739-44.883 138.541-102.092 174.003-158.297 35.466-56.211 45.568-111.382 21.988-152.224-23.579-40.841-76.41-59.678-142.823-57.069-66.407 2.609-146.352 26.66-224.091 71.543z" opacity=".8"/><path d="M162.676 453.079c44.882 77.739 102.091 138.541 158.296 174.003 56.212 35.466 111.383 45.568 152.224 21.988 40.841-23.579 59.678-76.41 57.069-142.824-2.608-66.406-26.66-146.351-71.543-224.09-44.882-77.739-102.091-138.541-158.296-174.003-56.212-35.466-111.383-45.568-152.224-21.989-40.841 23.58-59.678 76.411-57.07 142.824 2.61 66.406 26.661 146.352 71.544 224.091z" opacity=".8"/><path d="M288.139 198.811c-88.998 11.717-167.064 41.303-221.336 79.659-54.277 38.36-84.723 85.466-78.568 132.222 6.156 46.756 47.756 84.376 110.113 107.381 62.349 23.003 145.413 31.376 234.411 19.659 88.997-11.717 167.063-41.303 221.335-79.659 54.278-38.36 84.724-85.466 78.568-132.222-6.155-46.756-47.756-84.376-110.112-107.381-62.35-23.003-145.414-31.376-234.411-19.659z" opacity=".8"/><path d="M141.247 390.115c11.716 88.998 41.303 167.064 79.659 221.336 38.36 54.277 85.465 84.723 132.221 78.568 46.756-6.156 84.377-47.756 107.382-110.113 23.002-62.349 31.375-145.413 19.658-234.411-11.716-88.997-41.303-167.064-79.658-221.335-38.361-54.278-85.466-84.724-132.222-78.568-46.756 6.155-84.377 47.756-107.382 110.112-23.002 62.35-31.375 145.414-19.658 234.411z" opacity=".8"/><path d="M414.373 232.509c-71.216-54.645-147.338-88.926-212.835-100.18-65.505-11.255-120.342.525-149.051 37.939-28.709 37.414-25.895 93.432 1.931 153.791 27.823 60.353 80.637 125.009 151.853 179.655 71.215 54.645 147.337 88.926 212.835 100.18 65.505 11.256 120.342-.525 149.051-37.939 28.709-37.414 25.895-93.431-1.931-153.791-27.823-60.353-80.637-125.009-151.853-179.655z" opacity=".8"/><path d="M175.229 263.913c-54.645 71.216-88.926 147.338-100.18 212.835-11.256 65.505.525 120.342 37.939 149.051 37.414 28.709 93.431 25.895 153.791-1.931 60.353-27.823 125.009-80.637 179.654-151.853C501.079 400.8 535.36 324.678 546.614 259.18c11.255-65.505-.525-120.342-37.939-149.051-37.414-28.708-93.432-25.894-153.791 1.931-60.353 27.823-125.009 80.637-179.655 151.853z" opacity=".8"/><path d="M147.824 316.506c-26.993 85.61-33.171 168.866-21.345 234.263 11.827 65.404 41.653 112.905 86.629 127.086 44.977 14.181 96.654-7.622 143.857-54.414 47.197-46.787 89.89-118.53 116.883-204.141 26.993-85.61 33.171-168.866 21.345-234.263-11.828-65.404-41.653-112.905-86.63-127.086-44.976-14.181-96.653 7.622-143.856 54.414-47.197 46.787-89.89 118.53-116.883 204.141z" opacity=".8"/><path d="M259.126 530.483c85.61 26.993 168.866 33.171 234.263 21.345 65.404-11.827 112.905-41.652 127.086-86.629 14.181-44.977-7.622-96.653-54.414-143.856-46.787-47.197-118.53-89.89-204.14-116.883-85.611-26.993-168.867-33.171-234.264-21.345C62.253 194.942 14.752 224.768.571 269.744-13.61 314.721 8.193 366.398 54.985 413.6c46.787 47.198 118.53 89.891 204.141 116.883z" opacity=".8"/><path d="M231.703 216.543C152.08 257.992 88.841 312.494 50.961 367.099 13.076 421.709.578 476.387 22.353 518.218c21.776 41.831 73.735 62.955 140.199 63.245 66.457.291 147.375-20.251 226.998-61.7 79.623-41.449 142.862-95.951 180.742-150.556 37.884-54.611 50.383-109.289 28.607-151.12-21.775-41.83-73.734-62.954-140.198-63.245-66.457-.29-147.375 20.251-226.998 61.701z" opacity=".8"/><path d="M159.097 446.549c41.449 79.623 95.952 142.862 150.556 180.742 54.611 37.885 109.289 50.383 151.12 28.608 41.831-21.776 62.955-73.735 63.245-140.199.29-66.457-20.251-147.375-61.7-226.998-41.449-79.623-95.952-142.862-150.556-180.742-54.611-37.884-109.289-50.383-151.12-28.607-41.831 21.775-62.954 73.734-63.245 140.198-.29 66.457 20.251 147.375 61.7 226.998z" opacity=".8"/><path d="M295.531 197.998c-89.424 7.823-168.706 33.976-224.6 69.928-55.899 35.956-88.37 81.689-84.26 128.669 4.11 46.98 44.03 86.379 105.324 112.082 61.287 25.7 143.906 37.689 233.33 29.865 89.424-7.824 168.706-33.976 224.599-69.928 55.9-35.957 88.371-81.689 84.261-128.669-4.11-46.98-44.03-86.38-105.324-112.083-61.287-25.7-143.906-37.688-233.33-29.864z" opacity=".8"/><path d="M140.436 382.712c7.824 89.424 33.977 168.706 69.929 224.6 35.956 55.899 81.689 88.37 128.668 84.26 46.98-4.11 86.38-44.03 112.083-105.323 25.7-61.287 37.688-143.907 29.865-233.331-7.824-89.424-33.977-168.706-69.929-224.599-35.956-55.9-81.689-88.371-128.669-84.26-46.98 4.11-86.379 44.03-112.082 105.323-25.7 61.287-37.689 143.906-29.865 233.33z" opacity=".8"/><path d="M420.175 237.17c-68.765-57.7-143.319-95.268-208.263-109.368-64.952-14.102-120.25-4.725-150.564 31.401-30.313 36.126-29.945 92.213-4.779 153.729 25.164 61.509 75.108 128.407 143.872 186.107 68.764 57.7 143.318 95.269 208.263 109.369 64.951 14.102 120.25 4.725 150.563-31.401 30.314-36.126 29.946-92.214 4.78-153.73-25.164-61.509-75.108-128.406-143.872-186.107z" opacity=".8"/><path d="M179.891 258.114c-57.7 68.765-95.268 143.319-109.369 208.263-14.102 64.952-4.725 120.251 31.402 150.564 36.126 30.313 92.213 29.945 153.729 4.779 61.509-25.164 128.407-75.107 186.107-143.872 57.7-68.764 95.268-143.318 109.369-208.263 14.102-64.951 4.725-120.25-31.402-150.563-36.126-30.314-92.213-29.946-153.729-4.779-61.509 25.163-128.407 75.107-186.107 143.871z" opacity=".8"/><path d="M150.217 309.459c-30.702 84.352-40.505 167.259-31.543 233.11 8.963 65.857 36.688 114.614 81.003 130.744 44.316 16.129 96.894-3.4 146.093-48.088 49.193-44.683 94.975-114.496 125.676-198.848 30.702-84.352 40.506-167.259 31.543-233.109-8.963-65.858-36.688-114.615-81.003-130.744-44.315-16.13-96.894 3.4-146.093 48.088-49.193 44.683-94.975 114.496-125.676 198.847z" opacity=".8"/><path d="M252.078 528.087c84.351 30.701 167.259 40.505 233.109 31.543 65.858-8.963 114.614-36.688 130.744-81.004 16.129-44.315-3.399-96.894-48.088-146.092-44.683-49.194-114.496-94.975-198.848-125.677-84.351-30.701-167.259-40.505-233.109-31.543-65.858 8.964-114.614 36.688-130.744 81.004-16.13 44.315 3.4 96.894 48.088 146.093 44.683 49.193 114.496 94.974 198.848 125.676z" opacity=".8"/><path d="M238.375 213.25C157.02 251.186 91.464 302.878 51.238 355.779c-40.23 52.906-55.102 106.987-35.172 149.728 19.93 42.741 70.918 66.111 137.306 69.3 66.381 3.189 148.118-13.804 229.474-51.74 81.355-37.937 146.911-89.628 187.137-142.529 40.231-52.906 55.102-106.987 35.172-149.728-19.931-42.741-70.918-66.111-137.306-69.3-66.381-3.189-148.118 13.803-229.474 51.74z" opacity=".8"/><path d="M155.809 439.871c37.936 81.355 89.628 146.911 142.528 187.137 52.907 40.231 106.988 55.102 149.728 35.172 42.741-19.93 66.111-70.918 69.3-137.306 3.189-66.381-13.803-148.118-51.739-229.473-37.937-81.356-89.629-146.912-142.529-187.138-52.907-40.23-106.987-55.102-149.728-35.172-42.741 19.93-66.111 70.918-69.3 137.307-3.189 66.38 13.803 148.118 51.74 229.473z" opacity=".8"/><path d="M302.951 197.507c-89.68 3.916-170.028 26.585-227.436 60.065-57.414 33.484-91.85 77.757-89.793 124.871 2.057 47.115 40.22 88.218 100.335 116.57 60.107 28.349 142.125 43.93 231.805 40.014 89.68-3.915 170.028-26.585 227.436-60.065 57.415-33.484 91.85-77.757 89.793-124.871-2.057-47.114-40.22-88.218-100.334-116.57-60.108-28.349-142.126-43.929-231.806-40.014z" opacity=".8"/><path d="M139.946 375.278c3.915 89.68 26.585 170.028 60.065 227.436 33.483 57.415 77.756 91.85 124.871 89.793 47.114-2.057 88.217-40.22 116.569-100.334 28.349-60.108 43.93-142.126 40.015-231.806-3.916-89.68-26.586-170.028-60.066-227.436-33.483-57.414-77.756-91.85-124.87-89.793-47.115 2.057-88.218 40.22-116.57 100.335-28.349 60.107-43.93 142.125-40.014 231.805z" opacity=".8"/><path d="M425.772 242.079C359.59 181.435 286.746 140.65 222.478 123.73c-64.274-16.921-119.93-9.965-151.79 24.804-31.86 34.77-33.94 90.82-11.48 153.375 22.457 62.548 69.435 131.561 135.617 192.205 66.182 60.645 139.027 101.43 203.294 118.349 64.275 16.922 119.93 9.966 151.79-24.804 31.861-34.769 33.94-90.819 11.48-153.374-22.456-62.548-69.435-131.561-135.617-192.206z" opacity=".8"/><path d="M184.801 252.522C124.157 318.704 83.372 391.548 66.452 455.815c-16.922 64.275-9.965 119.93 24.804 151.791 34.77 31.86 90.819 33.939 153.375 11.48 62.548-22.457 131.56-69.435 192.205-135.617 60.645-66.182 101.429-139.027 118.349-203.294 16.922-64.275 9.966-119.93-24.804-151.79-34.769-31.86-90.819-33.94-153.374-11.48-62.549 22.456-131.561 69.435-192.206 135.617z" opacity=".8"/></g><g stroke="#3F83F8" stroke-width=".283" clip-path="url(#b)"><path d="M978.923 367.792c0 89.765 19.144 171.025 50.087 229.839 30.95 58.82 73.68 95.154 120.84 95.154s89.88-36.334 120.83-95.154c30.95-58.814 50.09-140.074 50.09-229.839 0-89.766-19.14-171.026-50.09-229.84-30.95-58.82-73.67-95.154-120.83-95.154s-89.89 36.334-120.84 95.154c-30.943 58.814-50.087 140.074-50.087 229.84z" opacity=".8"/><path d="M1149.42 538.397c89.76 0 171.02-19.143 229.84-50.087 58.82-30.948 95.15-73.676 95.15-120.836 0-47.159-36.33-89.888-95.15-120.835-58.82-30.944-140.08-50.087-229.84-50.087-89.77 0-171.029 19.143-229.843 50.087-58.82 30.947-95.154 73.676-95.154 120.835 0 47.16 36.334 89.888 95.154 120.836 58.814 30.944 140.073 50.087 229.843 50.087z" opacity=".8"/><path d="M1028.86 247.237c-63.473 63.473-107.396 134.469-127.103 197.938-19.709 63.475-15.187 119.381 18.159 152.727 33.347 33.347 89.254 37.869 152.724 18.16 63.47-19.707 134.47-63.631 197.94-127.104 63.48-63.474 107.4-134.47 127.11-197.938 19.71-63.476 15.18-119.382-18.16-152.728-33.35-33.347-89.26-37.869-152.73-18.159-63.47 19.707-134.47 63.63-197.94 127.104z" opacity=".8"/><path d="M1028.78 488.43c63.48 63.474 134.47 107.397 197.94 127.104 63.48 19.709 119.38 15.187 152.73-18.16 33.35-33.346 37.87-89.252 18.16-152.727-19.71-63.468-63.63-134.465-127.11-197.938-63.47-63.474-134.47-107.397-197.93-127.104-63.48-19.71-119.385-15.188-152.731 18.159-33.347 33.347-37.869 89.252-18.16 152.728 19.707 63.468 63.631 134.464 127.101 197.938z" opacity=".8"/><path d="M1084.16 210.352c-82.94 34.352-150.686 83.135-193.181 134.23-42.5 51.102-59.716 104.482-41.669 148.052 18.047 43.569 67.966 69.141 134.152 75.223 66.178 6.081 148.578-7.329 231.508-41.681 82.94-34.352 150.69-83.135 193.18-134.23 42.5-51.102 59.72-104.482 41.67-148.052-18.05-43.569-67.97-69.141-134.15-75.223-66.18-6.081-148.58 7.329-231.51 41.681z" opacity=".8"/><path d="M991.784 433.157c34.356 82.932 83.136 150.681 134.226 193.176 51.11 42.5 104.49 59.717 148.06 41.67 43.56-18.047 69.14-67.967 75.22-134.153 6.08-66.179-7.33-148.579-41.68-231.512-34.35-82.932-83.14-150.681-134.23-193.176-51.1-42.5-104.48-59.716-148.05-41.67-43.574 18.048-69.145 67.968-75.227 134.154-6.082 66.178 7.329 148.579 41.681 231.511z" opacity=".8"/><path d="M1214.81 210.233c-82.93-34.352-165.33-47.763-231.507-41.681-66.186 6.082-116.105 31.653-134.152 75.223-18.048 43.57-.831 96.95 41.669 148.051 42.495 51.096 110.24 99.879 193.18 134.231 82.93 34.351 165.33 47.762 231.51 41.681 66.18-6.082 116.1-31.654 134.15-75.224 18.05-43.569.83-96.95-41.67-148.051-42.49-51.095-110.24-99.879-193.18-134.23z" opacity=".8"/><path d="M991.95 302.46c-34.352 82.933-47.763 165.333-41.682 231.512 6.082 66.186 31.654 116.106 75.222 134.153 43.57 18.047 96.95.83 148.05-41.67 51.1-42.495 99.88-110.244 134.23-193.176 34.36-82.932 47.77-165.333 41.68-231.512-6.08-66.185-31.65-116.105-75.22-134.152-43.57-18.047-96.95-.83-148.05 41.669-51.1 42.495-99.88 110.244-134.23 193.176z" opacity=".8"/><path d="M979.084 360.354c-3.915 89.68 11.665 171.698 40.016 231.806 28.35 60.114 69.45 98.277 116.57 100.334 47.11 2.057 91.39-32.378 124.87-89.793 33.48-57.408 56.15-137.756 60.06-227.436 3.92-89.68-11.66-171.698-40.01-231.805-28.35-60.115-69.46-98.278-116.57-100.335-47.11-2.057-91.39 32.379-124.87 89.793-33.48 57.408-56.15 137.756-60.066 227.436z" opacity=".8"/><path d="M1141.98 538.232c89.68 3.916 171.69-11.665 231.8-40.014 60.12-28.352 98.28-69.455 100.34-116.57 2.05-47.114-32.38-91.387-89.8-124.871-57.4-33.479-137.75-56.149-227.43-60.065-89.68-3.915-171.7 11.666-231.807 40.014-60.115 28.353-98.278 69.456-100.335 116.57-2.057 47.115 32.379 91.388 89.793 124.871 57.408 33.48 137.759 56.15 227.439 60.065z" opacity=".8"/><path d="M1034.23 242.087c-66.178 60.645-113.156 129.658-135.613 192.206-22.459 62.555-20.38 118.605 11.48 153.374 31.861 34.77 87.516 41.726 151.793 24.804 64.27-16.919 137.11-57.704 203.29-118.349 66.18-60.644 113.16-129.657 135.62-192.205 22.46-62.555 20.38-118.605-11.48-153.375-31.86-34.769-87.52-41.725-151.79-24.804-64.27 16.92-137.11 57.705-203.3 118.349z" opacity=".8"/><path d="M1023.64 483.049c60.64 66.182 129.65 113.16 192.2 135.617 62.56 22.459 118.61 20.38 153.38-11.48 34.77-31.861 41.72-87.516 24.8-151.791-16.92-64.267-57.7-137.111-118.35-203.293-60.64-66.182-129.66-113.161-192.2-135.617-62.56-22.46-118.609-20.38-153.379 11.48-34.769 31.86-41.726 87.515-24.804 151.79 16.92 64.267 57.705 137.112 118.353 203.294z" opacity=".8"/><path d="M1091.09 207.653c-84.35 30.701-154.166 76.483-198.849 125.676-44.689 49.199-64.217 101.778-48.088 146.093 16.13 44.315 64.886 72.04 130.744 81.003 65.853 8.963 148.753-.841 233.113-31.543 84.35-30.701 154.16-76.483 198.84-125.676 44.69-49.199 64.22-101.778 48.09-146.093-16.13-44.315-64.88-72.04-130.74-81.003-65.85-8.963-148.76.841-233.11 31.543z" opacity=".8"/><path d="M989.084 426.216c30.706 84.352 76.486 154.164 125.676 198.848 49.2 44.688 101.78 64.217 146.09 48.088 44.32-16.13 72.04-64.887 81.01-130.744 8.96-65.851-.84-148.758-31.55-233.11-30.7-84.352-76.48-154.164-125.67-198.847-49.2-44.689-101.78-64.217-146.1-48.088-44.31 16.13-72.035 64.886-80.999 130.744-8.962 65.85.842 148.757 31.543 233.109z" opacity=".8"/><path d="M1221.62 213.232c-81.35-37.936-163.09-54.928-229.468-51.739-66.389 3.189-117.376 26.559-137.307 69.3-19.93 42.741-5.058 96.821 35.172 149.728 40.226 52.9 105.783 104.592 187.133 142.529 81.36 37.936 163.1 54.928 229.48 51.739 66.39-3.189 117.37-26.559 137.3-69.3 19.93-42.741 5.06-96.821-35.17-149.728-40.22-52.9-105.78-104.592-187.14-142.529z" opacity=".8"/><path d="M994.949 295.653c-37.936 81.355-54.928 163.092-51.74 229.473 3.19 66.388 26.56 117.376 69.301 137.306 42.74 19.93 96.82 5.059 149.73-35.172 52.9-40.226 104.59-105.782 142.53-187.137 37.93-81.355 54.93-163.093 51.74-229.473-3.19-66.389-26.56-117.376-69.3-137.307-42.74-19.93-96.83-5.058-149.73 35.172-52.9 40.226-104.59 105.783-142.531 187.138z" opacity=".8"/><path d="M979.573 352.926c-7.824 89.424 4.164 172.043 29.867 233.33 25.7 61.294 65.1 101.214 112.08 105.324 46.98 4.11 92.71-28.361 128.67-84.261 35.95-55.893 62.1-135.175 69.93-224.599 7.82-89.424-4.17-172.044-29.87-233.33-25.7-61.294-65.1-101.214-112.08-105.324-46.98-4.11-92.71 28.361-128.67 84.261-35.95 55.893-62.104 135.175-69.927 224.599z" opacity=".8"/><path d="M1134.55 537.742c89.42 7.823 172.04-4.165 233.33-29.865 61.3-25.703 101.21-65.103 105.32-112.083 4.12-46.979-28.36-92.712-84.26-128.668-55.89-35.952-135.17-62.105-224.6-69.929-89.42-7.823-172.039 4.165-233.325 29.865-61.294 25.703-101.214 65.103-105.324 112.082-4.11 46.98 28.361 92.713 84.261 128.669 55.893 35.952 135.178 62.105 224.598 69.929z" opacity=".8"/><path d="M1039.83 237.18c-68.767 57.7-118.711 124.598-143.874 186.107-25.167 61.516-25.535 117.603 4.779 153.729 30.313 36.126 85.612 45.504 150.565 31.402 64.94-14.101 139.5-51.669 208.26-109.369 68.77-57.7 118.71-124.598 143.87-186.107 25.17-61.516 25.54-117.604-4.78-153.73-30.31-36.126-85.61-45.503-150.56-31.401-64.94 14.1-139.5 51.669-208.26 109.369z" opacity=".8"/><path d="M1018.73 477.45c57.7 68.764 124.6 118.708 186.11 143.871 61.51 25.167 117.6 25.535 153.73-4.779 36.12-30.313 45.5-85.612 31.4-150.564-14.1-64.944-51.67-139.498-109.37-208.262-57.7-68.765-124.6-118.708-186.11-143.872-61.51-25.166-117.601-25.534-153.727 4.779-36.126 30.314-45.503 85.612-31.401 150.564 14.1 64.944 51.669 139.498 109.368 208.263z" opacity=".8"/><path d="M1098.13 205.26c-85.61 26.993-157.353 69.686-204.14 116.883-46.792 47.203-68.596 98.88-54.415 143.856 14.182 44.977 61.683 74.802 127.087 86.629 65.398 11.827 148.648 5.648 234.258-21.345 85.62-26.992 157.36-69.685 204.15-116.883 46.79-47.202 68.59-98.879 54.41-143.856-14.18-44.977-61.68-74.802-127.09-86.629-65.39-11.826-148.65-5.648-234.26 21.345z" opacity=".8"/><path d="M986.688 419.163c26.992 85.611 69.682 157.353 116.882 204.14 47.2 46.792 98.88 68.595 143.86 54.414 44.97-14.181 74.8-61.682 86.63-127.086 11.82-65.396 5.64-148.652-21.35-234.263-26.99-85.611-69.68-157.354-116.88-204.14-47.2-46.792-98.88-68.596-143.86-54.415-44.97 14.181-74.8 61.683-86.627 127.087-11.826 65.396-5.648 148.652 21.345 234.263z" opacity=".8"/><path d="M1228.3 216.525c-79.62-41.449-160.54-61.99-227-61.7-66.464.29-118.422 21.414-140.198 63.245-21.776 41.831-9.277 96.509 28.608 151.12 37.88 54.604 101.119 109.107 180.74 150.556 79.62 41.449 160.54 61.99 227 61.7 66.46-.291 118.42-21.414 140.2-63.245 21.77-41.831 9.28-96.509-28.61-151.12-37.88-54.605-101.12-109.107-180.74-150.556z" opacity=".8"/><path d="M998.244 288.979c-41.449 79.623-61.991 160.541-61.7 226.998.29 66.464 21.414 118.422 63.245 140.198 41.831 21.776 96.511 9.277 151.121-28.607 54.6-37.88 109.11-101.12 150.55-180.743 41.45-79.623 61.99-160.541 61.7-226.997-.29-66.465-21.41-118.423-63.24-140.199-41.83-21.776-96.51-9.277-151.12 28.607-54.6 37.881-109.11 101.12-150.556 180.743z" opacity=".8"/><path d="M980.385 345.528c-11.717 88.998-3.344 172.061 19.655 234.411 23.01 62.357 60.63 103.957 107.39 110.112 46.75 6.156 93.86-24.29 132.22-78.568 38.35-54.271 67.94-132.338 79.66-221.335 11.71-88.998 3.34-172.061-19.66-234.411-23.01-62.357-60.63-103.957-107.38-110.112-46.76-6.156-93.87 24.29-132.23 78.568-38.35 54.271-67.938 132.338-79.655 221.335z" opacity=".8"/><path d="M1127.15 536.93c89 11.716 172.06 3.343 234.41-19.659 62.36-23.005 103.96-60.626 110.12-107.382 6.15-46.756-24.29-93.861-78.57-132.221-54.27-38.356-132.34-67.943-221.34-79.659-88.99-11.717-172.058-3.344-234.408 19.658-62.357 23.005-103.957 60.626-110.112 107.382-6.156 46.756 24.29 93.862 78.568 132.222 54.271 38.356 132.342 67.942 221.332 79.659z" opacity=".8"/><path d="M1045.63 232.522c-71.214 54.645-124.028 119.301-151.851 179.654-27.826 60.36-30.64 116.377-1.931 153.791s83.546 49.195 149.052 37.939c65.5-11.254 141.62-45.535 212.83-100.18 71.22-54.646 124.03-119.302 151.86-179.655 27.82-60.359 30.64-116.377 1.93-153.791s-83.55-49.194-149.05-37.939c-65.5 11.254-141.62 45.535-212.84 100.181z" opacity=".8"/><path d="M1014.07 471.64c54.65 71.215 119.3 124.03 179.65 151.852 60.36 27.826 116.38 30.64 153.8 1.931 37.41-28.709 49.19-83.546 37.94-149.051-11.26-65.497-45.54-141.619-100.19-212.835-54.64-71.215-119.3-124.03-179.65-151.852-60.36-27.826-116.377-30.64-153.791-1.931-37.414 28.708-49.194 83.546-37.939 149.05 11.254 65.498 45.535 141.62 100.18 212.836z" opacity=".8"/><path d="M1105.27 203.173c-86.71 23.233-160.243 62.756-209.044 107.867-48.806 45.117-72.843 95.794-60.637 141.346 12.205 45.552 58.36 77.421 123.186 92.09 64.815 14.668 148.265 12.127 234.975-11.106 86.7-23.233 160.24-62.756 209.04-107.868 48.81-45.116 72.84-95.793 60.64-141.345-12.21-45.553-58.36-77.422-123.19-92.091-64.82-14.667-148.26-12.126-234.97 11.107z" opacity=".8"/><path d="M984.604 412.013c23.236 86.706 62.756 160.243 107.866 209.044 45.12 48.806 95.8 72.843 141.35 60.638 45.55-12.206 77.42-58.361 92.09-123.187 14.67-64.819 12.12-148.265-11.11-234.971-23.23-86.707-62.75-160.244-107.87-209.045-45.11-48.806-95.79-72.843-141.34-60.637-45.55 12.206-77.423 58.36-92.092 123.186-14.667 64.819-12.127 148.265 11.106 234.972z" opacity=".8"/><path d="M1234.82 220.107c-77.74-44.883-157.68-68.934-224.09-71.543-66.412-2.609-119.242 16.228-142.822 57.069s-13.478 96.013 21.988 152.224c35.463 56.205 96.264 113.414 174.004 158.296 77.74 44.883 157.68 68.935 224.09 71.543 66.41 2.609 119.24-16.228 142.82-57.069s13.48-96.012-21.98-152.224c-35.47-56.205-96.27-113.414-174.01-158.296z" opacity=".8"/><path d="M1001.83 282.457c-44.887 77.739-68.939 157.684-71.547 224.091-2.609 66.413 16.228 119.244 57.069 142.823 40.838 23.58 96.008 13.478 152.228-21.988 56.2-35.462 113.41-96.264 158.29-174.003 44.88-77.739 68.94-157.685 71.55-224.091 2.6-66.413-16.23-119.244-57.07-142.823-40.85-23.58-96.02-13.478-152.23 21.988-56.2 35.462-113.41 96.264-158.29 174.003z" opacity=".8"/><path d="M981.517 338.176c-15.588 88.401-10.846 171.751 9.415 235.045 20.268 63.301 56.038 106.502 102.478 114.692 46.44 8.189 94.83-20.174 135.52-72.726 40.69-52.547 73.65-129.249 89.24-217.651 15.59-88.401 10.84-171.751-9.42-235.045-20.26-63.3-56.03-106.502-102.47-114.691-46.45-8.19-94.83 20.173-135.53 72.726-40.68 52.546-73.645 129.248-89.233 217.65z" opacity=".8"/><path d="M1119.8 535.793c88.4 15.588 171.75 10.846 235.04-9.415 63.3-20.263 106.5-56.033 114.69-102.476 8.19-46.443-20.17-94.832-72.72-135.523-52.55-40.687-129.25-73.65-217.65-89.237-88.4-15.588-171.75-10.846-235.048 9.415-63.3 20.263-106.502 56.033-114.691 102.476-8.189 46.443 20.173 94.832 72.726 135.523 52.547 40.687 129.253 73.65 217.653 89.237z" opacity=".8"/><path d="M1051.63 228.122C978.099 279.61 922.514 341.9 892.086 400.982c-30.433 59.088-35.687 114.93-8.638 153.561 27.05 38.63 81.321 52.791 147.252 44.404 65.93-8.387 143.47-39.314 217-90.802 73.54-51.487 129.12-113.777 159.55-172.859 30.43-59.089 35.69-114.93 8.64-153.561-27.05-38.631-81.32-52.792-147.26-44.404-65.92 8.386-143.47 39.314-217 90.801z" opacity=".8"/><path d="M1009.67 465.635c51.49 73.532 113.78 129.116 172.86 159.545 59.09 30.432 114.93 35.687 153.56 8.638 38.63-27.05 52.8-81.321 44.41-147.255-8.39-65.926-39.32-143.47-90.8-217.002-51.49-73.531-113.78-129.116-172.86-159.545-59.09-30.432-114.93-35.687-153.564-8.637-38.631 27.049-52.792 81.321-44.404 147.254 8.386 65.926 39.314 143.471 90.798 217.002z" opacity=".8"/><path d="M1112.49 201.402c-87.63 19.429-162.825 55.706-213.547 98.646-50.728 42.945-76.952 92.525-66.745 138.567 10.207 46.041 54.928 79.893 119.052 97.375 64.12 17.481 147.59 18.583 235.23-.846 87.64-19.429 162.83-55.706 213.55-98.646 50.73-42.945 76.96-92.525 66.75-138.567-10.21-46.041-54.93-79.893-119.05-97.376-64.12-17.48-147.6-18.582-235.24.847z" opacity=".8"/><path d="M982.834 404.78c19.426 87.638 55.706 162.828 98.646 213.55 42.94 50.728 92.52 76.953 138.57 66.746 46.04-10.208 79.89-54.928 97.37-119.053 17.48-64.117 18.58-147.594-.84-235.232-19.43-87.638-55.71-162.828-98.65-213.55-42.95-50.728-92.53-76.953-138.57-66.746-46.04 10.208-79.89 54.928-97.373 119.053-17.481 64.117-18.582 147.594.847 235.232z" opacity=".8"/><path d="M1241.18 223.972c-75.7-48.231-154.52-75.747-220.75-81.25-66.24-5.503-119.842 11.012-145.18 50.785-25.339 39.774-17.653 95.334 15.327 153.038 32.977 57.699 91.226 117.505 166.933 165.736 75.71 48.231 154.53 75.747 220.76 81.25 66.23 5.503 119.84-11.012 145.17-50.786 25.34-39.773 17.66-95.333-15.32-153.037-32.98-57.699-91.23-117.505-166.94-165.736z" opacity=".8"/><path d="M1005.69 276.098c-48.23 75.707-75.746 154.527-81.249 220.756-5.503 66.237 11.012 119.839 50.785 145.177 39.774 25.339 95.334 17.654 153.034-15.327 57.7-32.977 117.51-91.225 165.74-166.933 48.23-75.707 75.75-154.527 81.25-220.756 5.5-66.237-11.01-119.839-50.79-145.177-39.77-25.34-95.33-17.653-153.03 15.327-57.7 32.977-117.51 91.225-165.74 166.933z" opacity=".8"/><path d="M982.972 330.878c-19.429 87.637-18.327 171.115-.846 235.232 17.482 64.124 51.334 108.845 97.374 119.052 46.04 10.207 95.62-16.017 138.57-66.745 42.94-50.722 79.22-125.913 98.64-213.551 19.43-87.637 18.33-171.115.85-235.232-17.48-64.124-51.33-108.845-97.38-119.052-46.04-10.207-95.62 16.017-138.56 66.745-42.94 50.722-79.22 125.913-98.648 213.551z" opacity=".8"/><path d="M1112.5 534.339c87.63 19.428 171.11 18.327 235.23.846 64.12-17.483 108.84-51.335 119.05-97.376 10.21-46.042-16.02-95.622-66.74-138.566-50.73-42.94-125.92-79.218-213.55-98.647-87.64-19.428-171.12-18.327-235.237-.846-64.124 17.483-108.845 51.334-119.052 97.376-10.207 46.041 16.017 95.621 66.745 138.566 50.722 42.94 125.914 79.218 213.554 98.647z" opacity=".8"/><path d="M1057.82 223.985c-75.71 48.231-133.959 108.037-166.935 165.736-32.981 57.705-40.667 113.264-15.328 153.038 25.339 39.774 78.941 56.288 145.173 50.785 66.23-5.503 145.05-33.019 220.76-81.25 75.71-48.23 133.96-108.037 166.93-165.735 32.98-57.705 40.67-113.265 15.33-153.038-25.34-39.774-78.94-56.289-145.18-50.785-66.23 5.502-145.05 33.018-220.75 81.249z" opacity=".8"/><path d="M1005.54 459.444c48.23 75.708 108.04 133.956 165.73 166.933 57.71 32.981 113.27 40.666 153.04 15.328 39.78-25.339 56.29-78.941 50.79-145.178-5.51-66.229-33.02-145.049-81.25-220.756s-108.04-133.956-165.74-166.933c-57.7-32.98-113.26-40.666-153.037-15.327-39.773 25.338-56.288 78.94-50.785 145.177 5.503 66.229 33.019 145.049 81.252 220.756z" opacity=".8"/><path d="M1119.79 199.947c-88.41 15.588-165.107 48.551-217.654 89.238-52.553 40.691-80.915 89.08-72.726 135.523 8.189 46.443 51.391 82.213 114.691 102.476 63.299 20.261 146.649 25.003 235.049 9.415 88.4-15.588 165.1-48.551 217.65-89.238 52.55-40.691 80.91-89.08 72.72-135.523-8.19-46.442-51.39-82.213-114.69-102.476-63.29-20.261-146.64-25.003-235.04-9.415z" opacity=".8"/><path d="M981.379 397.476c15.587 88.401 48.551 165.103 89.241 217.65 40.69 52.553 89.08 80.915 135.52 72.726 46.44-8.189 82.21-51.391 102.48-114.692 20.26-63.293 25-146.643 9.41-235.045-15.59-88.402-48.55-165.103-89.24-217.65-40.69-52.553-89.08-80.915-135.52-72.726-46.44 8.19-82.21 51.39-102.476 114.692-20.261 63.293-25.003 146.643-9.415 235.045z" opacity=".8"/><path d="M1247.37 228.107c-73.53-51.487-151.08-82.415-217-90.801-65.935-8.388-120.206 5.773-147.255 44.404-27.05 38.631-21.795 94.472 8.637 153.561 30.429 59.082 86.013 121.372 159.548 172.859 73.53 51.488 151.07 82.415 217 90.802s120.2-5.774 147.25-44.405c27.05-38.63 21.8-94.472-8.63-153.56-30.43-59.082-86.02-121.373-159.55-172.86z" opacity=".8"/><path d="M1009.83 269.912c-51.491 73.532-82.419 151.076-90.806 217.002-8.387 65.934 5.774 120.205 44.405 147.255 38.631 27.049 94.471 21.794 153.561-8.638 59.08-30.429 121.37-86.013 172.86-159.544 51.49-73.532 82.41-151.077 90.8-217.003 8.39-65.933-5.77-120.205-44.4-147.254-38.63-27.05-94.48-21.795-153.56 8.638-59.09 30.428-121.38 86.013-172.86 159.544z" opacity=".8"/><path d="M984.741 323.649c-23.233 86.707-25.773 170.153-11.106 234.972 14.669 64.826 46.535 110.981 92.095 123.186 45.55 12.206 96.22-11.831 141.34-60.637 45.11-48.801 84.64-122.338 107.87-209.045 23.23-86.706 25.77-170.152 11.1-234.971-14.66-64.826-46.53-110.98-92.09-123.186-45.55-12.206-96.22 11.83-141.34 60.637-45.11 48.801-84.64 122.338-107.869 209.044z" opacity=".8"/><path d="M1105.27 532.567c86.71 23.233 170.15 25.774 234.97 11.106 64.83-14.669 110.98-46.537 123.19-92.09 12.2-45.552-11.83-96.229-60.64-141.346-48.8-45.111-122.34-84.634-209.04-107.867-86.71-23.233-170.16-25.774-234.975-11.106-64.826 14.669-110.981 46.538-123.186 92.09-12.206 45.552 11.831 96.229 60.637 141.346 48.801 45.111 122.334 84.634 209.044 107.867z" opacity=".8"/><path d="M1064.18 220.123c-77.742 44.883-138.544 102.092-174.006 158.297-35.466 56.211-45.568 111.382-21.988 152.223 23.579 40.841 76.41 59.679 142.824 57.07 66.41-2.609 146.35-26.661 224.09-71.543 77.74-44.883 138.54-102.092 174-158.297 35.47-56.211 45.57-111.382 21.99-152.224-23.58-40.841-76.41-59.678-142.82-57.069-66.41 2.609-146.35 26.66-224.09 71.543z" opacity=".8"/><path d="M1001.68 453.079c44.88 77.739 102.09 138.541 158.29 174.003 56.21 35.466 111.38 45.568 152.23 21.988 40.84-23.579 59.67-76.41 57.07-142.824-2.61-66.406-26.66-146.351-71.55-224.09-44.88-77.739-102.09-138.541-158.29-174.003-56.22-35.466-111.39-45.568-152.228-21.989-40.841 23.58-59.678 76.411-57.069 142.824 2.609 66.406 26.66 146.352 71.547 224.091z" opacity=".8"/><path d="M1127.14 198.811c-89 11.717-167.065 41.303-221.337 79.659-54.277 38.36-84.723 85.466-78.568 132.222 6.156 46.756 47.756 84.376 110.113 107.381 62.349 23.003 145.412 31.376 234.412 19.659 89-11.717 167.06-41.303 221.33-79.659 54.28-38.36 84.73-85.466 78.57-132.222-6.15-46.756-47.75-84.376-110.11-107.381-62.35-23.003-145.41-31.376-234.41-19.659z" opacity=".8"/><path d="M980.247 390.115c11.716 88.998 41.303 167.064 79.663 221.336 38.36 54.277 85.46 84.723 132.22 78.568 46.75-6.156 84.37-47.756 107.38-110.113 23-62.349 31.37-145.413 19.66-234.411-11.72-88.997-41.31-167.064-79.66-221.335-38.36-54.278-85.47-84.724-132.22-78.568-46.76 6.155-84.38 47.756-107.385 110.112-23.002 62.35-31.375 145.414-19.658 234.411z" opacity=".8"/><path d="M1253.37 232.509c-71.21-54.645-147.34-88.926-212.83-100.18-65.508-11.255-120.345.525-149.054 37.939-28.709 37.414-25.895 93.432 1.931 153.791 27.823 60.353 80.637 125.009 151.853 179.655 71.22 54.645 147.34 88.926 212.83 100.18 65.51 11.256 120.35-.525 149.06-37.939 28.7-37.414 25.89-93.431-1.94-153.791-27.82-60.353-80.63-125.009-151.85-179.655z" opacity=".8"/><path d="M1014.23 263.913c-54.647 71.216-88.928 147.338-100.182 212.835-11.256 65.505.525 120.342 37.939 149.051 37.414 28.709 93.433 25.895 153.793-1.931 60.35-27.823 125.01-80.637 179.65-151.853 54.65-71.215 88.93-147.337 100.18-212.835 11.26-65.505-.52-120.342-37.94-149.051-37.41-28.708-93.43-25.894-153.79 1.931-60.35 27.823-125.01 80.637-179.65 151.853z" opacity=".8"/><path d="M986.825 316.506c-26.993 85.61-33.171 168.866-21.345 234.263 11.827 65.404 41.65 112.905 86.63 127.086 44.98 14.181 96.65-7.622 143.86-54.414 47.19-46.787 89.89-118.53 116.88-204.141 26.99-85.61 33.17-168.866 21.34-234.263-11.82-65.404-41.65-112.905-86.63-127.086-44.97-14.181-96.65 7.622-143.85 54.414-47.2 46.787-89.89 118.53-116.885 204.141z" opacity=".8"/><path d="M1098.12 530.483c85.62 26.993 168.87 33.171 234.27 21.345 65.4-11.827 112.9-41.652 127.08-86.629 14.19-44.977-7.62-96.653-54.41-143.856-46.79-47.197-118.53-89.89-204.14-116.883-85.61-26.993-168.87-33.171-234.264-21.345-65.404 11.827-112.905 41.653-127.086 86.629-14.181 44.977 7.622 96.654 54.414 143.856 46.787 47.198 118.526 89.891 204.136 116.883z" opacity=".8"/><path d="M1070.7 216.543c-79.62 41.449-142.859 95.951-180.739 150.556-37.885 54.61-50.383 109.288-28.608 151.119 21.776 41.831 73.735 62.955 140.197 63.245 66.46.291 147.38-20.251 227-61.7s142.86-95.951 180.74-150.556c37.89-54.611 50.39-109.289 28.61-151.12-21.78-41.83-73.73-62.954-140.2-63.245-66.46-.29-147.37 20.251-227 61.701z" opacity=".8"/><path d="M998.097 446.549c41.453 79.623 95.953 142.862 150.553 180.742 54.61 37.885 109.29 50.383 151.12 28.608 41.83-21.776 62.96-73.735 63.25-140.199.29-66.457-20.25-147.375-61.7-226.998-41.45-79.623-95.95-142.862-150.56-180.742-54.61-37.884-109.29-50.383-151.118-28.607-41.831 21.775-62.955 73.734-63.245 140.198-.29 66.457 20.251 147.375 61.7 226.998z" opacity=".8"/><path d="M1134.53 197.998c-89.42 7.823-168.706 33.976-224.599 69.928-55.9 35.956-88.371 81.689-84.261 128.669 4.11 46.98 44.03 86.379 105.324 112.082 61.287 25.7 143.906 37.689 233.326 29.865 89.43-7.824 168.71-33.976 224.6-69.928 55.9-35.957 88.37-81.689 84.26-128.669-4.11-46.98-44.03-86.38-105.32-112.083-61.29-25.7-143.91-37.688-233.33-29.864z" opacity=".8"/><path d="M979.437 382.712c7.824 89.424 33.973 168.706 69.933 224.6 35.95 55.899 81.68 88.37 128.66 84.26 46.98-4.11 86.38-44.03 112.09-105.323 25.7-61.287 37.69-143.907 29.86-233.331-7.82-89.424-33.97-168.706-69.93-224.599-35.95-55.9-81.69-88.371-128.67-84.26-46.98 4.11-86.38 44.03-112.08 105.323-25.698 61.287-37.687 143.906-29.863 233.33z" opacity=".8"/><path d="M1259.17 237.17c-68.76-57.7-143.31-95.268-208.26-109.368-64.95-14.102-120.248-4.725-150.562 31.401-30.313 36.126-29.945 92.213-4.779 153.729 25.164 61.509 75.108 128.407 143.871 186.107 68.77 57.7 143.32 95.269 208.26 109.369 64.96 14.102 120.25 4.725 150.57-31.401 30.31-36.126 29.94-92.214 4.78-153.73-25.17-61.509-75.11-128.406-143.88-186.107z" opacity=".8"/><path d="M1018.89 258.114c-57.699 68.765-95.267 143.319-109.368 208.263-14.102 64.952-4.725 120.251 31.402 150.564 36.126 30.313 92.216 29.945 153.726 4.779 61.51-25.164 128.41-75.107 186.11-143.872 57.7-68.764 95.27-143.318 109.37-208.263 14.1-64.951 4.72-120.25-31.4-150.563-36.13-30.314-92.22-29.946-153.73-4.779-61.51 25.163-128.41 75.107-186.11 143.871z" opacity=".8"/><path d="M989.216 309.459c-30.702 84.352-40.505 167.259-31.543 233.11 8.963 65.857 36.688 114.614 81.007 130.744 44.31 16.129 96.89-3.4 146.09-48.088 49.19-44.683 94.97-114.496 125.68-198.848 30.7-84.352 40.5-167.259 31.54-233.109-8.96-65.858-36.69-114.615-81.01-130.744-44.31-16.13-96.89 3.4-146.09 48.088-49.19 44.683-94.97 114.496-125.674 198.847z" opacity=".8"/><path d="M1091.08 528.087c84.35 30.701 167.26 40.505 233.11 31.543 65.86-8.963 114.61-36.688 130.74-81.004 16.13-44.315-3.4-96.894-48.09-146.092-44.68-49.194-114.49-94.975-198.84-125.677-84.36-30.701-167.26-40.505-233.113-31.543-65.857 8.964-114.614 36.688-130.744 81.004-16.129 44.315 3.399 96.894 48.088 146.093 44.683 49.193 114.499 94.974 198.849 125.676z" opacity=".8"/><path d="M1077.38 213.25c-81.36 37.936-146.916 89.628-187.142 142.529-40.231 52.906-55.102 106.987-35.172 149.728 19.931 42.741 70.918 66.111 137.306 69.3 66.378 3.189 148.118-13.804 229.478-51.74 81.35-37.937 146.91-89.628 187.13-142.529 40.23-52.906 55.11-106.987 35.17-149.728-19.93-42.741-70.91-66.111-137.3-69.3-66.38-3.189-148.12 13.803-229.47 51.74z" opacity=".8"/><path d="M994.808 439.871c37.942 81.355 89.632 146.911 142.532 187.137 52.9 40.231 106.98 55.102 149.73 35.172 42.74-19.93 66.11-70.918 69.3-137.306 3.18-66.381-13.81-148.118-51.74-229.473-37.94-81.356-89.63-146.912-142.53-187.138-52.91-40.23-106.99-55.102-149.73-35.172-42.742 19.93-66.112 70.918-69.301 137.307-3.189 66.38 13.803 148.118 51.739 229.473z" opacity=".8"/><path d="M1141.95 197.507c-89.68 3.916-170.026 26.585-227.434 60.065-57.414 33.484-91.85 77.757-89.793 124.871 2.057 47.115 40.22 88.218 100.335 116.57 60.107 28.349 142.122 43.93 231.802 40.014 89.68-3.915 170.03-26.585 227.44-60.065 57.41-33.484 91.85-77.757 89.79-124.871-2.05-47.114-40.22-88.218-100.33-116.57-60.11-28.349-142.13-43.929-231.81-40.014z" opacity=".8"/><path d="M978.947 375.278c3.915 89.68 26.583 170.028 60.063 227.436 33.49 57.415 77.76 91.85 124.87 89.793 47.12-2.057 88.22-40.22 116.57-100.334 28.35-60.108 43.93-142.126 40.02-231.806-3.92-89.68-26.59-170.028-60.07-227.436-33.48-57.414-77.76-91.85-124.87-89.793-47.11 2.057-88.22 40.22-116.57 100.335-28.348 60.107-43.929 142.125-40.013 231.805z" opacity=".8"/><path d="M1264.77 242.079c-66.18-60.644-139.02-101.429-203.29-118.349-64.275-16.921-119.931-9.965-151.791 24.804-31.86 34.77-33.939 90.82-11.48 153.375 22.457 62.548 69.435 131.561 135.621 192.205 66.18 60.645 139.02 101.43 203.29 118.349 64.27 16.922 119.93 9.966 151.79-24.804 31.86-34.769 33.94-90.819 11.48-153.374-22.46-62.548-69.43-131.561-135.62-192.206z" opacity=".8"/><path d="M1023.8 252.522c-60.642 66.182-101.427 139.026-118.347 203.293-16.922 64.275-9.965 119.93 24.804 151.791 34.77 31.86 90.823 33.939 153.373 11.48 62.55-22.457 131.56-69.435 192.21-135.617 60.64-66.182 101.43-139.027 118.35-203.294 16.92-64.275 9.96-119.93-24.81-151.79-34.77-31.86-90.82-33.94-153.37-11.48-62.55 22.456-131.56 69.435-192.21 135.617z" opacity=".8"/></g><path fill="#fff" d="M624.613 564.461a171.997 171.997 0 0 0 261.803 115.196 172.007 172.007 0 0 0 76.971-174.931L794 534.594l-169.387 29.867z"/><defs><clipPath id="a"><path fill="#fff" d="M678 .309H-57v698h735z"/></clipPath><clipPath id="b"><path fill="#fff" d="M1517 .309H782v344.573h735z"/></clipPath></defs></svg>