<svg xmlns="http://www.w3.org/2000/svg" width="20" height="16" fill="none"><path fill="#fff" fill-rule="evenodd" d="M1.327 6.888C6.51 4.63 9.966 3.14 11.695 2.422 16.632.37 17.658.012 18.326 0c.148-.002.476.034.69.207.18.146.229.343.252.481.024.139.053.454.03.7-.267 2.811-1.425 9.633-2.014 12.781-.25 1.333-.74 1.78-1.215 1.823-1.032.095-1.816-.682-2.816-1.338-1.565-1.025-2.449-1.664-3.968-2.665-1.755-1.156-.617-1.792.383-2.831.262-.272 4.81-4.41 4.899-4.785.01-.047.021-.222-.083-.314-.104-.092-.257-.06-.368-.036-.157.036-2.656 1.688-7.499 4.957-.71.487-1.352.724-1.928.712-.634-.014-1.855-.359-2.763-.654C.812 8.676-.072 8.485.005 7.87c.04-.32.48-.647 1.322-.982z" clip-rule="evenodd"/></svg>