<svg xmlns="http://www.w3.org/2000/svg" width="293" height="78" fill="none"><path fill="#fff" d="M18.645 5.88c2.304 0 4.416.341 6.336 1.024s3.584 1.685 4.992 3.008c1.45 1.28 2.603 2.88 3.456 4.8.853 1.877 1.344 4.032 1.472 6.464h-6.016c-.256-2.987-1.237-5.27-2.944-6.848-1.664-1.579-4.16-2.368-7.488-2.368-1.579 0-2.944.213-4.096.64-1.152.384-2.133.939-2.944 1.664a8.017 8.017 0 0 0-1.856 2.432c-.47.939-.81 1.963-1.024 3.072v.064c-.085.512-.17 1.621-.256 3.328a226.728 226.728 0 0 0-.064 5.632c0 2.005.021 3.925.064 5.76.085 1.835.213 3.115.384 3.84.47 2.176 1.45 3.883 2.944 5.12 1.493 1.237 3.819 1.856 6.976 1.856 1.835 0 3.392-.213 4.672-.64 1.28-.427 2.325-1.067 3.136-1.92.81-.853 1.408-1.899 1.792-3.136.384-1.28.619-2.752.704-4.416h6.016c0 2.432-.448 4.65-1.344 6.656a15.894 15.894 0 0 1-3.52 5.12 15.948 15.948 0 0 1-5.184 3.264c-1.963.768-4.053 1.152-6.272 1.152-2.219 0-4.33-.384-6.336-1.152a16.29 16.29 0 0 1-5.184-3.392c-1.45-1.493-2.603-3.264-3.456-5.312-.853-2.048-1.28-4.31-1.28-6.784V22.52c0-2.645.405-4.992 1.216-7.04.81-2.09 1.92-3.84 3.328-5.248 1.45-1.408 3.179-2.475 5.184-3.2 2.005-.768 4.203-1.152 6.592-1.152zM38.123 51V6.136h6.272V22.84h.127c.64-.981 1.771-1.835 3.392-2.56 1.664-.725 3.52-1.088 5.569-1.088 1.749 0 3.498.17 5.248.512a11.41 11.41 0 0 1 4.8 2.176c1.45 1.11 2.623 2.71 3.52 4.8.895 2.09 1.343 4.907 1.343 8.448V51h-6.4V35.576c0-2.09-.17-3.797-.511-5.12-.342-1.365-.875-2.432-1.6-3.2-.683-.768-1.58-1.301-2.689-1.6-1.066-.299-2.325-.448-3.776-.448-1.493 0-2.816.15-3.968.448-1.152.299-2.111.832-2.88 1.6-.767.768-1.365 1.792-1.791 3.072-.385 1.237-.577 2.816-.577 4.736V51h-6.08zm53.342-20.224v-5.44h-17.28v-6.08h23.296v25.728h4.288V51h-9.472l-.64-3.392h-.192c-.512.939-1.536 1.75-3.072 2.432-1.536.683-3.456 1.024-5.76 1.024-3.755 0-6.635-.981-8.64-2.944-2.005-2.005-3.008-4.544-3.008-7.616 0-3.2 1.195-5.61 3.584-7.232 2.39-1.664 5.59-2.496 9.6-2.496h7.296zm0 5.44h-6.4c-1.365 0-2.539.15-3.52.448-.981.299-1.792.683-2.432 1.152-.597.427-1.045.939-1.344 1.536a3.941 3.941 0 0 0-.384 1.664c0 1.11.341 2.027 1.024 2.752.725.725 1.536 1.216 2.432 1.472.896.256 1.77.384 2.624.384.299 0 .832-.021 1.6-.064.81-.085 1.728-.363 2.752-.832a7.247 7.247 0 0 0 2.56-2.112c.725-.896 1.088-1.963 1.088-3.2v-3.2zM110.986 6.2v6.016h-6.016V6.2h6.016zM104.97 19h6.016v32h-6.016V19zm10.58 32V19.256h6.272v3.584h.128c.64-.981 1.771-1.835 3.392-2.56 1.664-.725 3.52-1.088 5.568-1.088 1.749 0 3.499.17 5.248.512a11.41 11.41 0 0 1 4.8 2.176c1.451 1.11 2.624 2.71 3.52 4.8.896 2.09 1.344 4.907 1.344 8.448V51h-6.4V35.576c0-2.09-.171-3.797-.512-5.12-.341-1.365-.875-2.432-1.6-3.2-.683-.768-1.579-1.301-2.688-1.6-1.067-.299-2.325-.448-3.776-.448-1.493 0-2.816.15-3.968.448-1.152.299-2.112.832-2.88 1.6-.768.768-1.365 1.792-1.792 3.072-.384 1.237-.576 2.816-.576 4.736V51h-6.08zm103.986-31.744h6.272L219.024 51H208.08l-4.224-25.728h-.896L198.8 51h-10.944l-6.784-31.744h6.272l5.504 25.728h.64l4.224-25.728h11.456l4.224 25.728h.64l5.504-25.728zm27.379 11.52v-5.44h-17.28v-6.08h23.296v25.728h4.288V51h-9.472l-.64-3.392h-.192c-.512.939-1.536 1.75-3.072 2.432-1.536.683-3.456 1.024-5.76 1.024-3.755 0-6.635-.981-8.64-2.944-2.005-2.005-3.008-4.544-3.008-7.616 0-3.2 1.195-5.61 3.584-7.232 2.389-1.664 5.589-2.496 9.6-2.496h7.296zm0 5.44h-6.4c-1.365 0-2.539.15-3.52.448-.981.299-1.792.683-2.432 1.152-.597.427-1.045.939-1.344 1.536a3.941 3.941 0 0 0-.384 1.664c0 1.11.341 2.027 1.024 2.752.725.725 1.536 1.216 2.432 1.472a9.53 9.53 0 0 0 2.624.384c.299 0 .832-.021 1.6-.064.811-.085 1.728-.363 2.752-.832a7.25 7.25 0 0 0 2.56-2.112c.725-.896 1.088-1.963 1.088-3.2v-3.2zm19.265-16.96v3.52h.192c.683-1.067 1.877-1.92 3.584-2.56 1.707-.64 3.648-.96 5.824-.96 1.707 0 3.435.17 5.184.512a10.392 10.392 0 0 1 4.8 2.112c1.451 1.11 2.624 2.71 3.52 4.8.939 2.09 1.408 4.907 1.408 8.448 0 3.499-.448 6.315-1.344 8.448-.896 2.09-2.069 3.69-3.52 4.8a11.41 11.41 0 0 1-4.8 2.176 27.347 27.347 0 0 1-5.248.512c-2.048 0-3.947-.32-5.696-.96-1.707-.64-2.88-1.45-3.52-2.432h-.128V64.12h-6.016V19.256h5.76zm9.344 25.728c1.451 0 2.709-.107 3.776-.32 1.067-.256 1.941-.725 2.624-1.408.683-.725 1.195-1.707 1.536-2.944.341-1.28.512-2.965.512-5.056 0-2.347-.213-4.181-.64-5.504-.384-1.365-.96-2.368-1.728-3.008-.768-.683-1.707-1.11-2.816-1.28-1.067-.17-2.283-.256-3.648-.256-1.365 0-2.603.107-3.712.32a5.491 5.491 0 0 0-2.752 1.408c-.768.683-1.365 1.685-1.792 3.008-.384 1.323-.576 3.093-.576 5.312 0 1.963.171 3.584.512 4.864.341 1.28.875 2.283 1.6 3.008.768.683 1.728 1.173 2.88 1.472 1.152.256 2.56.384 4.224.384z"/><g filter="url(#a)"><path fill="url(#b)" d="M150.489 39.334V3.183c0-1.452 1.538-2.388 2.827-1.721l34.009 17.588c1.803.933 1.14 3.658-.889 3.658h-17.363a1.94 1.94 0 0 0-1.516.73l-13.615 17.103c-1.142 1.434-3.453.627-3.453-1.206z"/></g><g filter="url(#c)"><path fill="url(#d)" d="M176.644 31.702v36.152c0 1.451-1.538 2.387-2.827 1.72l-34.01-17.587c-1.803-.933-1.14-3.658.89-3.658h17.363a1.94 1.94 0 0 0 1.516-.731l13.615-17.102c1.142-1.435 3.453-.627 3.453 1.206z"/></g><defs><linearGradient id="b" x1="151.888" x2="188.587" y1="1.076" y2="22.493" gradientUnits="userSpaceOnUse"><stop offset="0" stop-color="#CFCAEF"/><stop offset="1" stop-color="#3E63A5"/></linearGradient><linearGradient id="d" x1="175.245" x2="138.546" y1="69.96" y2="48.544" gradientUnits="userSpaceOnUse"><stop offset="0" stop-color="#594EA0"/><stop offset="1" stop-color="#3E63A5"/></linearGradient><filter id="a" width="45.361" height="47.506" x="146.751" y="1.243" color-interpolation-filters="sRGB" filterUnits="userSpaceOnUse"><feFlood flood-opacity="0" result="BackgroundImageFix"/><feColorMatrix in="SourceAlpha" result="hardAlpha" values="0 0 0 0 0 0 0 0 0 0 0 0 0 0 0 0 0 0 127 0"/><feOffset dy="3.737"/><feGaussianBlur stdDeviation="1.868"/><feComposite in2="hardAlpha" operator="out"/><feColorMatrix values="0 0 0 0 0 0 0 0 0 0 0 0 0 0 0 0 0 0 0.45 0"/><feBlend in2="BackgroundImageFix" result="effect1_dropShadow_412_1851"/><feBlend in="SourceGraphic" in2="effect1_dropShadow_412_1851" result="shape"/><feColorMatrix in="SourceAlpha" result="hardAlpha" values="0 0 0 0 0 0 0 0 0 0 0 0 0 0 0 0 0 0 127 0"/><feOffset dy=".861"/><feGaussianBlur stdDeviation=".215"/><feComposite in2="hardAlpha" k2="-1" k3="1" operator="arithmetic"/><feColorMatrix values="0 0 0 0 0.596078 0 0 0 0 0.690196 0 0 0 0 0.862745 0 0 0 1 0"/><feBlend in2="shape" result="effect2_innerShadow_412_1851"/><feColorMatrix in="SourceAlpha" result="hardAlpha" values="0 0 0 0 0 0 0 0 0 0 0 0 0 0 0 0 0 0 127 0"/><feOffset dy=".861"/><feGaussianBlur stdDeviation="1.614"/><feComposite in2="hardAlpha" k2="-1" k3="1" operator="arithmetic"/><feColorMatrix values="0 0 0 0 0.013316 0 0 0 0 0.0946971 0 0 0 0 0.245833 0 0 0 0.7 0"/><feBlend in2="effect2_innerShadow_412_1851" result="effect3_innerShadow_412_1851"/></filter><filter id="c" width="45.361" height="49.375" x="135.021" y="27.893" color-interpolation-filters="sRGB" filterUnits="userSpaceOnUse"><feFlood flood-opacity="0" result="BackgroundImageFix"/><feColorMatrix in="SourceAlpha" result="hardAlpha" values="0 0 0 0 0 0 0 0 0 0 0 0 0 0 0 0 0 0 127 0"/><feOffset dy="3.737"/><feGaussianBlur stdDeviation="1.868"/><feComposite in2="hardAlpha" operator="out"/><feColorMatrix values="0 0 0 0 0 0 0 0 0 0 0 0 0 0 0 0 0 0 0.45 0"/><feBlend in2="BackgroundImageFix" result="effect1_dropShadow_412_1851"/><feBlend in="SourceGraphic" in2="effect1_dropShadow_412_1851" result="shape"/><feColorMatrix in="SourceAlpha" result="hardAlpha" values="0 0 0 0 0 0 0 0 0 0 0 0 0 0 0 0 0 0 127 0"/><feOffset dy=".861"/><feGaussianBlur stdDeviation=".215"/><feComposite in2="hardAlpha" k2="-1" k3="1" operator="arithmetic"/><feColorMatrix values="0 0 0 0 0.596078 0 0 0 0 0.690196 0 0 0 0 0.862745 0 0 0 1 0"/><feBlend in2="shape" result="effect2_innerShadow_412_1851"/><feColorMatrix in="SourceAlpha" result="hardAlpha" values="0 0 0 0 0 0 0 0 0 0 0 0 0 0 0 0 0 0 127 0"/><feOffset dy=".861"/><feGaussianBlur stdDeviation="1.614"/><feComposite in2="hardAlpha" k2="-1" k3="1" operator="arithmetic"/><feColorMatrix values="0 0 0 0 0.013316 0 0 0 0 0.0946971 0 0 0 0 0.245833 0 0 0 0.7 0"/><feBlend in2="effect2_innerShadow_412_1851" result="effect3_innerShadow_412_1851"/><feColorMatrix in="SourceAlpha" result="hardAlpha" values="0 0 0 0 0 0 0 0 0 0 0 0 0 0 0 0 0 0 127 0"/><feOffset dx="1.868" dy="-1.868"/><feGaussianBlur stdDeviation="1.868"/><feComposite in2="hardAlpha" k2="-1" k3="1" operator="arithmetic"/><feColorMatrix values="0 0 0 0 0 0 0 0 0 0 0 0 0 0 0 0 0 0 0.45 0"/><feBlend in2="effect3_innerShadow_412_1851" result="effect4_innerShadow_412_1851"/></filter></defs></svg>