<svg xmlns="http://www.w3.org/2000/svg" width="1480" height="679" fill="none"><g stroke="#3F83F8" stroke-width=".636" clip-path="url(#a)"><path d="M1123.66-51.463c0-201.636-43-384.168-112.51-516.279-69.517-132.126-165.497-213.741-271.429-213.741-105.932 0-201.912 81.615-271.427 213.741-69.508 132.111-112.509 314.643-112.509 516.279 0 201.636 43.001 384.168 112.509 516.279 69.515 132.126 165.495 213.741 271.427 213.741 105.932 0 201.912-81.615 271.429-213.741 69.51-132.111 112.51-314.643 112.51-516.28z" opacity=".8"/><path d="M740.687-434.688c-201.636 0-384.168 43.001-516.279 112.509C92.283-252.663 10.668-156.684 10.668-50.752c0 105.932 81.615 201.912 213.74 271.428 132.111 69.508 314.643 112.509 516.279 112.509 201.637 0 384.173-43.001 516.283-112.509 132.12-69.516 213.74-165.496 213.74-271.428 0-105.932-81.62-201.911-213.74-271.427-132.11-69.508-314.646-112.509-516.283-112.509z" opacity=".8"/><path d="M1011.49 219.338c142.57-142.578 241.24-302.054 285.5-444.62 44.28-142.582 34.12-268.161-40.79-343.066-74.9-74.905-200.48-85.062-343.062-40.79-142.566 44.267-302.041 142.93-444.62 285.508C325.94-181.051 227.277-21.576 183.01 120.99c-44.272 142.582-34.115 268.161 40.79 343.066 74.905 74.906 200.484 85.063 343.066 40.791 142.566-44.267 302.042-142.93 444.624-285.509z" opacity=".8"/><path d="M1011.66-322.445C869.084-465.024 709.608-563.687 567.042-607.954c-142.582-44.272-268.16-34.114-343.066 40.791-74.905 74.905-85.062 200.484-40.79 343.066 44.267 142.566 142.93 302.042 285.508 444.62 142.579 142.578 302.055 241.241 444.621 285.508 142.585 44.272 268.165 34.115 343.065-40.79 74.91-74.905 85.06-200.484 40.79-343.066-44.27-142.566-142.93-302.042-285.51-444.62z" opacity=".8"/><path d="M887.281 302.189C1073.57 225.026 1225.75 115.446 1321.21.672c95.46-114.786 134.13-234.693 93.6-332.561-40.54-97.868-152.68-155.309-301.35-168.971-148.651-13.66-333.744 16.464-520.031 93.627-186.288 77.162-338.469 186.742-433.925 301.516C64.039 9.069 25.366 128.976 65.904 226.844c40.539 97.869 152.671 155.31 301.342 168.971 148.654 13.66 333.747-16.464 520.035-93.626z" opacity=".8"/><path d="M1094.77-198.29c-77.16-186.287-186.742-338.469-301.516-433.924-114.786-95.465-234.693-134.138-332.561-93.6-97.868 40.539-155.309 152.671-168.971 301.342-13.66 148.654 16.464 333.747 93.627 520.035 77.162 186.287 186.742 338.469 301.516 433.924 114.786 95.466 234.693 134.138 332.565 93.6 97.86-40.538 155.31-152.671 168.97-301.342 13.66-148.654-16.47-333.747-93.63-520.035z" opacity=".8"/><path d="M593.787 302.457c186.288 77.163 371.381 107.287 520.033 93.627 148.67-13.662 260.81-71.103 301.34-168.971 40.54-97.869 1.87-217.775-93.6-332.562-95.45-114.773-247.63-224.353-433.921-301.516-186.287-77.163-371.38-107.287-520.035-93.627-148.67 13.662-260.803 71.103-301.341 168.972-40.539 97.868-1.866 217.775 93.6 332.561 95.455 114.774 247.636 224.353 433.924 301.516z" opacity=".8"/><path d="M1094.4 95.29c77.16-186.288 107.29-371.382 93.63-520.036-13.67-148.67-71.11-260.803-168.98-301.341-97.864-40.539-217.771-1.866-332.557 93.6-114.774 95.455-224.354 247.636-301.517 433.924C307.814-12.275 277.69 172.818 291.35 321.472c13.662 148.67 71.102 260.803 168.971 301.342 97.868 40.538 217.775 1.865 332.561-93.601C907.656 433.758 1017.24 281.577 1094.4 95.289z" opacity=".8"/><path d="M1123.3-34.754c8.79-201.445-26.21-385.678-89.88-520.695-63.691-135.032-156.02-220.757-261.851-225.377-105.831-4.621-205.279 72.73-280.492 201.698-75.205 128.953-126.127 309.435-134.922 510.88-8.795 201.444 26.203 385.678 89.882 520.695 63.686 135.032 156.015 220.756 261.846 225.377 105.831 4.621 205.28-72.73 280.493-201.698C1063.58 347.172 1114.5 166.69 1123.3-34.754z" opacity=".8"/><path d="M757.4-434.317c-201.444-8.795-385.678 26.203-520.695 89.882C101.673-280.748 15.949-188.42 11.328-82.589c-4.62 105.832 72.73 205.28 201.698 280.493 128.953 75.204 309.436 126.126 510.88 134.921 201.444 8.796 385.674-26.203 520.694-89.882 135.03-63.686 220.76-156.014 225.38-261.846 4.62-105.831-72.73-205.279-201.7-280.492-128.95-75.204-309.435-126.126-510.88-134.922z" opacity=".8"/><path d="M999.415 230.901C1148.08 94.677 1253.6-60.343 1304.05-200.842c50.44-140.515 45.77-266.418-25.79-344.519-71.57-78.101-196.58-93.727-340.962-55.716-144.361 38.006-307.989 129.619-456.651 265.843C331.985-199.011 226.46-43.991 176.017 96.509c-50.45 140.515-45.78 266.417 25.787 344.519 71.566 78.101 196.583 93.726 340.96 55.716 144.361-38.007 307.989-129.62 456.651-265.843z" opacity=".8"/><path d="M1023.22-310.36C887.001-459.022 731.98-564.547 591.481-614.991c-140.515-50.449-266.417-45.779-344.519 25.788-78.101 71.566-93.726 196.582-55.716 340.96 38.007 144.361 129.619 307.988 265.843 456.65 136.223 148.662 291.244 254.188 431.743 304.631 140.518 50.449 266.418 45.78 344.518-25.787 78.1-71.567 93.73-196.583 55.72-340.96-38.01-144.362-129.62-307.989-265.85-456.651z" opacity=".8"/><path d="M871.71 308.251C1061.19 239.287 1218 136.45 1318.37 25.949c100.38-110.513 144.25-228.618 108.02-328.162-36.23-99.544-145.75-161.821-293.68-181.955-147.921-20.131-334.152 1.891-523.628 70.854-189.476 68.964-346.293 171.801-446.663 282.302C62.037-20.499 18.17 97.606 54.401 197.15c36.231 99.544 145.752 161.821 293.685 181.955 147.917 20.131 334.148-1.891 523.624-70.854z" opacity=".8"/><path d="M1100.84-182.7c-68.97-189.476-171.805-346.292-282.306-446.663C708.021-729.745 589.916-773.611 490.372-737.38c-99.544 36.231-161.821 145.751-181.955 293.684-20.131 147.917 1.891 334.148 70.854 523.624 68.964 189.476 171.801 346.293 282.302 446.663 110.513 100.382 228.618 144.248 328.162 108.017 99.545-36.23 161.825-145.751 181.955-293.684 20.13-147.917-1.89-334.148-70.85-523.624z" opacity=".8"/><path d="M578.487 295.719c182.745 85.215 366.348 123.384 515.453 116.221 149.13-7.163 263.66-59.658 308.43-155.665 44.77-96.008 11.36-217.487-79.01-336.328-90.35-118.828-237.61-234.942-420.356-320.157-182.744-85.215-366.347-123.384-515.456-116.221-149.125 7.164-263.656 59.659-308.425 155.666-44.769 96.007-11.363 217.486 79.005 336.328C248.486 94.39 395.743 210.504 578.487 295.719z" opacity=".8"/><path d="M1087.66 110.583c85.22-182.744 123.38-366.347 116.22-515.456-7.16-149.125-59.66-263.656-155.66-308.425-96.011-44.769-217.491-11.363-336.332 79.005-118.828 90.358-234.941 237.615-320.156 420.359C306.516-31.189 268.347 152.414 275.51 301.522c7.164 149.125 59.659 263.657 155.666 308.425 96.007 44.769 217.487 11.363 336.328-79.005 118.828-90.357 234.946-237.614 320.156-420.359z" opacity=".8"/><path d="M1122.2-18.073c17.57-200.87-9.36-386.454-67.08-524.121-57.74-137.681-146.242-227.351-251.771-236.584-105.529-9.232-208.257 63.707-289.023 189.271-80.758 125.551-139.504 303.64-157.078 504.509-17.573 200.869 9.355 386.454 67.085 524.12 57.735 137.682 146.236 227.352 251.765 236.584 105.529 9.233 208.257-63.707 289.024-189.271 80.758-125.55 139.508-303.64 157.078-504.509z" opacity=".8"/><path d="M774.079-433.216c-200.869-17.574-386.454 9.355-524.12 67.084C112.277-308.396 22.607-219.895 13.375-114.366 4.142-8.836 77.082 93.891 202.645 174.658c125.55 80.757 303.639 139.503 504.508 157.077 200.869 17.574 386.456-9.355 524.116-67.084 137.69-57.736 227.36-146.237 236.59-251.766 9.23-105.529-63.71-208.257-189.27-289.023-125.55-80.758-303.642-139.504-504.511-157.078z" opacity=".8"/><path d="M986.851 241.924C1141.31 112.315 1253.5-37.955 1310.02-176.12c56.53-138.181 57.36-264.167-10.73-345.316s-192.31-102.212-338.206-70.535C815.202-560.298 647.734-475.91 493.272-346.3 338.809-216.691 226.622-66.421 170.098 71.744c-56.53 138.181-57.356 264.167 10.735 345.316 68.092 81.148 192.308 102.212 338.206 70.535 145.882-31.673 313.349-116.061 467.812-245.671z" opacity=".8"/><path d="M1034.24-297.782c-129.607-154.463-279.876-266.65-418.042-323.174-138.181-56.53-264.167-57.356-345.315 10.735-81.149 68.092-102.213 192.308-70.536 338.206 31.673 145.881 116.062 313.35 245.671 467.812C575.627 350.259 725.897 462.446 864.062 518.97c138.178 56.53 264.168 57.357 345.318-10.735 81.15-68.092 102.21-192.308 70.53-338.205-31.67-145.882-116.06-313.35-245.67-467.812z" opacity=".8"/><path d="M855.891 313.626c192.299-60.633 353.459-156.532 458.549-262.55 105.11-106.029 154.09-222.108 122.23-323.138-31.85-101.029-138.55-168.024-285.47-194.591-146.89-26.565-333.909-12.687-526.213 47.946-192.304 60.633-353.457 156.532-458.552 262.55C61.328-50.128 12.352 65.952 44.206 166.981 76.061 268.01 182.76 335.005 329.675 361.573c146.898 26.564 333.912 12.687 526.216-47.947z" opacity=".8"/><path d="M1106.22-166.856c-60.64-192.303-156.535-353.456-262.553-458.551C737.638-730.514 621.558-779.49 520.529-747.636 419.5-715.782 352.505-609.082 325.937-462.168c-26.564 146.898-12.686 333.912 47.947 526.216C434.517 256.352 530.416 417.505 636.433 522.6c106.03 105.107 222.109 154.083 323.139 122.229C1060.6 612.974 1127.6 506.275 1154.16 359.36c26.57-146.897 12.69-333.912-47.94-526.216z" opacity=".8"/><path d="M563.496 288.322c178.854 93.105 360.617 139.246 509.894 138.594 149.3-.652 266.01-48.102 314.92-142.064 48.92-93.963 20.84-216.784-64.26-339.454-85.08-122.657-227.14-245.083-405.989-338.188-178.854-93.105-360.617-139.247-509.896-138.594-149.296.652-266.008 48.101-314.922 142.064-48.914 93.963-20.839 216.784 64.259 339.454C242.591 72.79 384.643 195.216 563.496 288.322z" opacity=".8"/><path d="M1080.26 125.573c93.11-178.853 139.25-360.617 138.59-509.896-.65-149.295-48.1-266.008-142.06-314.922-93.963-48.914-216.784-20.838-339.454 64.26-122.656 85.088-245.082 227.14-338.187 405.994-93.106 178.853-139.247 360.617-138.595 509.896.652 149.295 48.102 266.008 142.065 314.922 93.962 48.913 216.783 20.838 339.453-64.26 122.657-85.089 245.083-227.14 338.188-405.994z" opacity=".8"/><path d="M1120.38-1.456c26.31-199.911 7.51-386.494-44.16-526.547-51.68-140.069-136.184-233.514-241.21-247.341-105.026-13.827-210.838 54.562-297.004 176.484-86.157 121.908-152.616 297.265-178.935 497.177-26.318 199.911-7.51 386.494 44.159 526.547 51.675 140.069 136.181 233.514 241.206 247.341 105.026 13.827 210.838-54.562 297.005-176.484C1027.6 373.813 1094.06 198.456 1120.38-1.456z" opacity=".8"/><path d="M790.697-431.39c-199.912-26.318-386.494-7.51-526.548 44.159C124.08-335.556 30.635-251.05 16.809-146.025 2.98-40.999 71.37 64.813 193.291 150.98 315.2 237.137 490.557 303.595 690.468 329.914c199.911 26.319 386.491 7.511 526.551-44.159 140.07-51.675 233.51-136.18 247.34-241.206 13.82-105.026-54.56-210.838-176.49-297.004-121.9-86.157-297.262-152.616-497.173-178.935z" opacity=".8"/><path d="M973.814 252.388C1133.78 129.64 1252.42-15.593 1314.91-151.162c62.51-135.583 68.83-261.414 4.34-345.455-64.48-84.042-187.66-110.503-334.804-85.221-147.125 25.28-318.114 102.283-478.083 225.032C346.394-234.058 227.759-88.825 165.262 46.744c-62.504 135.583-68.825 261.413-4.337 345.455 64.487 84.042 187.666 110.503 334.806 85.221 147.125-25.28 318.114-102.283 478.083-225.032z" opacity=".8"/><path d="M1044.71-284.735c-122.748-159.969-267.981-278.603-403.55-341.1-135.583-62.504-261.413-68.825-345.455-4.338-84.041 64.487-110.503 187.666-85.22 334.807 25.279 147.124 102.283 318.114 225.031 478.082 122.748 159.969 267.982 278.604 403.55 341.101 135.583 62.504 261.414 68.825 345.454 4.337 84.04-64.487 110.5-187.666 85.22-334.806-25.28-147.125-102.28-318.114-225.03-478.083z" opacity=".8"/><path d="M839.853 318.315C1034.62 266.128 1199.8 177.349 1309.42 76.017c109.63-101.343 163.63-215.176 136.21-317.499-27.42-102.322-131.09-173.908-276.71-206.858-145.6-32.947-333.041-27.24-527.807 24.947-194.766 52.187-359.948 140.966-469.568 242.298C61.914-79.751 7.921 34.082 35.338 136.404 62.755 238.727 166.43 310.313 312.046 343.263c145.6 32.946 333.041 27.24 527.807-24.948z" opacity=".8"/><path d="M1110.9-150.796c-52.19-194.766-140.968-359.948-242.3-469.568-101.343-109.632-215.176-163.625-317.499-136.207-102.322 27.417-173.908 131.093-206.858 276.708-32.947 145.6-27.24 333.041 24.947 527.807 52.187 194.765 140.966 359.948 242.298 469.567 101.344 109.632 215.177 163.625 317.499 136.208C1031.31 626.302 1102.9 522.626 1135.85 377.01c32.94-145.599 27.24-333.04-24.95-527.806z" opacity=".8"/><path d="M548.844 280.274c174.622 100.818 354.2 154.844 503.366 160.704 149.18 5.86 267.85-36.453 320.82-128.193 52.96-91.74 30.27-215.668-49.39-341.933-79.66-126.251-216.24-254.757-390.859-355.575-174.623-100.819-354.2-154.844-503.366-160.704-149.182-5.861-267.853 36.452-320.819 128.192-52.966 91.74-30.275 215.669 49.392 341.934C237.646 50.95 374.222 179.456 548.844 280.274z" opacity=".8"/><path d="M1072.21 140.223c100.82-174.622 154.85-354.199 160.71-503.365 5.86-149.182-36.46-267.853-128.2-320.819-91.74-52.966-215.664-30.275-341.929 49.392-126.251 79.657-254.757 216.234-355.575 390.856-100.818 174.622-154.844 354.2-160.704 503.365-5.86 149.182 36.453 267.853 128.193 320.819 91.739 52.966 215.668 30.275 341.933-49.392 126.251-79.657 254.757-216.234 355.572-390.856z" opacity=".8"/><path d="M1117.83 15.063c35.02-198.573 24.36-385.798-21.15-527.972-45.51-142.19-125.863-239.232-230.185-257.627-104.323-18.395-213.017 45.314-304.42 163.361-91.393 118.034-165.437 290.326-200.451 488.899-35.013 198.573-24.362 385.798 21.149 527.972 45.516 142.19 125.866 239.232 230.188 257.627 104.323 18.395 213.017-45.314 304.42-163.361 91.389-118.034 165.439-290.326 200.449-488.899z" opacity=".8"/><path d="M807.221-428.838c-198.573-35.014-385.799-24.363-527.973 21.148C137.059-362.173 40.016-281.824 21.622-177.501 3.227-73.179 66.935 35.515 184.982 126.918c118.034 91.393 290.326 165.437 488.899 200.451 198.573 35.014 385.799 24.362 527.969-21.149 142.19-45.516 239.24-125.865 257.63-230.188 18.4-104.323-45.31-213.017-163.36-304.42-118.03-91.393-290.33-165.437-488.899-200.45z" opacity=".8"/><path d="M960.342 262.274C1125.51 146.62 1250.37 6.699 1318.72-126.014c68.36-132.728 80.16-258.163 19.4-344.937-60.76-86.775-182.66-118.584-330.77-99.744-148.085 18.839-322.271 88.31-487.442 203.964S229.881-111.157 161.53 21.556C93.171 154.284 81.368 279.72 142.128 366.494c60.76 86.774 182.667 118.583 330.771 99.743 148.087-18.838 322.272-88.31 487.443-203.963z" opacity=".8"/><path d="M1054.59-271.245C938.933-436.416 799.013-561.273 666.3-629.624c-132.728-68.358-258.163-80.162-344.938-19.402-86.774 60.76-118.583 182.668-99.743 330.771 18.838 148.087 88.31 322.273 203.963 487.444 115.654 165.17 255.575 290.027 388.288 358.378 132.728 68.358 258.16 80.162 344.94 19.402 86.77-60.76 118.58-182.667 99.74-330.771-18.84-148.087-88.31-322.272-203.96-487.443z" opacity=".8"/><path d="M823.625 322.293c196.855-43.642 365.755-125.131 479.685-221.585 113.95-96.465 172.86-207.834 149.93-311.255-22.93-103.421-123.38-179.461-267.42-218.732-144.02-39.266-331.536-41.741-528.393 1.901-196.857 43.642-365.754 125.131-479.69 221.585C63.79-109.327 4.883 2.042 27.81 105.463c22.928 103.421 123.383 179.461 267.423 218.732 144.023 39.266 331.535 41.741 528.392-1.902z" opacity=".8"/><path d="M1114.88-134.548c-43.65-196.857-125.135-365.754-221.589-479.69-96.465-113.947-207.834-172.854-311.255-149.926-103.421 22.927-179.461 123.382-218.732 267.422-39.266 144.023-41.741 331.535 1.901 528.392 43.642 196.857 125.131 365.755 221.585 479.69 96.465 113.948 207.835 172.855 311.256 149.927 103.424-22.928 179.464-123.383 218.734-267.423 39.26-144.023 41.74-331.535-1.9-528.392z" opacity=".8"/><path d="M534.557 271.597c170.058 108.339 347.108 170.146 495.873 182.507 148.79 12.362 269.19-24.734 326.11-114.076 56.92-89.343 39.65-214.143-34.43-343.763-74.08-129.606-204.92-263.946-374.975-372.286C777.076-484.36 600.026-546.167 451.259-558.528 302.474-570.89 182.07-533.793 125.153-444.451c-56.917 89.342-39.653 214.142 34.43 343.762 74.075 129.606 204.916 263.947 374.974 372.286z" opacity=".8"/><path d="M1063.53 154.506c108.34-170.059 170.15-347.109 182.51-495.877 12.36-148.784-24.73-269.188-114.08-326.105-89.34-56.917-214.139-39.653-343.759 34.43-129.605 74.074-263.946 204.916-372.285 374.974S245.769 89.036 233.409 237.804c-12.363 148.784 24.734 269.188 114.076 326.105 89.342 56.918 214.143 39.654 343.763-34.429 129.605-74.075 263.946-204.916 372.282-374.974z" opacity=".8"/><path d="M1114.57 31.456c43.64-196.856 41.16-384.368 1.9-528.392-39.27-144.04-115.31-244.494-218.735-267.422-103.421-22.928-214.79 35.979-311.255 149.927-96.455 113.935-177.943 282.833-221.586 479.689-43.642 196.857-41.167 384.369-1.901 528.393 39.271 144.04 115.311 244.494 218.732 267.422 103.421 22.928 214.79-35.979 311.255-149.927 96.455-113.935 177.94-282.833 221.59-479.69z" opacity=".8"/><path d="M823.62-425.572c-196.857-43.643-384.369-41.168-528.393-1.902-144.04 39.271-244.494 115.311-267.422 218.732C4.877-105.321 63.784 6.048 177.732 102.513c113.935 96.455 282.833 177.944 479.69 221.586 196.856 43.642 384.368 41.167 528.388 1.901 144.04-39.271 244.5-115.311 267.43-218.732 22.92-103.42-35.98-214.79-149.93-311.255-113.94-96.455-282.83-177.943-479.69-221.585z" opacity=".8"/><path d="M946.445 271.563C1116.5 163.224 1247.34 28.883 1321.42-100.722c74.08-129.62 91.35-254.421 34.43-343.763-56.92-89.342-177.32-126.439-326.11-114.077-148.764 12.361-325.814 74.169-495.873 182.508C363.809-267.715 232.968-133.374 158.893-3.769c-74.083 129.62-91.347 254.421-34.43 343.763 56.918 89.342 177.321 126.439 326.106 114.077 148.768-12.361 325.818-74.169 495.876-182.508z" opacity=".8"/><path d="M1063.88-257.338C955.539-427.396 821.198-558.237 691.592-632.312c-129.62-74.083-254.42-91.347-343.762-34.429-89.343 56.917-126.439 177.321-114.077 326.105C246.114-191.868 307.921-14.818 416.26 155.24c108.339 170.059 242.68 300.9 372.286 374.974 129.62 74.083 254.424 91.347 343.764 34.43 89.34-56.917 126.44-177.321 114.08-326.105-12.37-148.768-74.17-325.818-182.51-495.877z" opacity=".8"/><path d="M807.247 325.561c198.573-35.014 370.863-109.058 488.903-200.451 118.04-91.403 181.75-200.097 163.36-304.419-18.4-104.323-115.44-184.672-257.63-230.188-142.17-45.512-329.4-56.163-527.973-21.149-198.573 35.013-370.864 109.058-488.898 200.45C66.962-138.793 3.253-30.099 21.648 74.224c18.395 104.323 115.437 184.672 257.627 230.188 142.173 45.511 329.399 56.163 527.972 21.149z" opacity=".8"/><path d="M1118.14-118.142c-35.01-198.573-109.05-370.865-200.447-488.899-91.403-118.047-200.097-181.756-304.419-163.361-104.323 18.395-184.672 115.437-230.189 257.627-45.511 142.174-56.162 329.399-21.148 527.972 35.013 198.573 109.058 370.865 200.45 488.899 91.403 118.047 200.097 181.756 304.42 163.361C971.13 649.062 1051.48 552.02 1096.99 409.83c45.52-142.174 56.17-329.4 21.15-527.972z" opacity=".8"/><path d="M520.658 262.306C685.829 377.96 860.015 447.431 1008.1 466.269c148.11 18.841 270.01-12.969 330.77-99.743 60.76-86.775 48.96-212.209-19.4-344.938-68.35-132.713-193.21-272.633-358.378-388.287-165.171-115.654-339.356-185.125-487.443-203.963-148.104-18.841-270.011 12.969-330.771 99.743-60.76 86.775-48.957 212.209 19.402 344.937C230.631 6.732 355.488 146.652 520.658 262.306z" opacity=".8"/><path d="M1054.24 168.399c115.66-165.17 185.13-339.356 203.97-487.443 18.84-148.104-12.97-270.011-99.75-330.771-86.77-60.76-212.205-48.956-344.933 19.402-132.713 68.351-272.634 193.208-388.288 358.379-115.653 165.17-185.125 339.356-203.963 487.443-18.84 148.103 12.969 270.011 99.744 330.771 86.774 60.76 212.209 48.956 344.937-19.402C798.67 458.427 938.59 333.57 1054.24 168.399z" opacity=".8"/><path d="M1110.59 47.691c52.19-194.765 57.9-382.207 24.95-527.806-32.95-145.616-104.54-249.292-206.858-276.709-102.323-27.417-216.156 26.576-317.499 136.207-101.333 109.62-190.111 274.802-242.299 469.568-52.187 194.766-57.894 382.207-24.947 527.807 32.95 145.615 104.536 249.291 206.858 276.708 102.323 27.418 216.156-26.575 317.5-136.207C969.627 407.64 1058.41 242.457 1110.59 47.691z" opacity=".8"/><path d="M839.852-421.592c-194.765-52.187-382.207-57.894-527.806-24.947C166.43-413.589 62.754-342.003 35.337-239.681 7.92-137.358 61.913-23.525 171.545 77.819c109.619 101.332 274.802 190.11 469.567 242.298 194.766 52.187 382.208 57.894 527.808 24.947 145.61-32.95 249.29-104.536 276.71-206.858 27.41-102.323-26.58-216.156-136.21-317.5-109.62-101.332-274.8-190.11-469.568-242.298z" opacity=".8"/><path d="M932.155 280.24C1106.78 179.421 1243.35 50.916 1323.01-75.336c79.67-126.265 102.36-250.193 49.39-341.933-52.96-91.74-171.63-134.053-320.82-128.193-149.161 5.86-328.739 59.886-503.361 160.704C373.597-283.94 237.02-155.434 157.363-29.183 77.696 97.082 55.005 221.011 107.971 312.751c52.966 91.74 171.637 134.053 320.819 128.192 149.165-5.859 328.743-59.885 503.365-160.703z" opacity=".8"/><path d="M1072.55-243.04C971.733-417.662 843.227-554.239 716.976-633.896c-126.265-79.667-250.194-102.358-341.934-49.392-91.739 52.966-134.053 171.637-128.192 320.819 5.86 149.166 59.886 328.743 160.704 503.365 100.818 174.623 229.324 311.199 355.575 390.857 126.265 79.666 250.191 102.357 341.931 49.391 91.74-52.966 134.06-171.637 128.19-320.819-5.85-149.165-59.88-328.743-160.7-503.365z" opacity=".8"/><path d="M790.73 328.112c199.911-26.319 375.27-92.777 497.18-178.934 121.92-86.167 190.31-191.979 176.48-297.004-13.83-105.026-107.27-189.532-247.34-241.207-140.05-51.669-326.636-70.477-526.547-44.159-199.912 26.319-375.269 92.778-497.177 178.935C71.404-168.09 3.015-62.279 16.842 42.747c13.827 105.026 107.272 189.532 247.341 241.207 140.053 51.669 326.636 70.477 526.547 44.158z" opacity=".8"/><path d="M1120.69-101.605c-26.32-199.911-92.78-375.269-178.938-497.177-86.167-121.921-191.979-190.311-297.004-176.484-105.026 13.827-189.532 107.272-241.207 247.341-51.669 140.053-70.477 326.636-44.158 526.547C385.701 198.534 452.16 373.891 538.317 495.8c86.167 121.922 191.978 190.311 297.004 176.484 105.026-13.827 189.529-107.272 241.209-247.341 51.67-140.053 70.48-326.636 44.16-526.547z" opacity=".8"/><path d="M507.175 252.418c159.969 122.748 330.959 199.751 478.083 225.031 147.142 25.283 270.322-1.179 334.812-85.22 64.48-84.042 58.16-209.872-4.34-345.456-62.5-135.568-181.13-280.801-341.103-403.55-159.969-122.748-330.958-199.751-478.083-225.031-147.141-25.283-270.319 1.179-334.807 85.22-64.487 84.042-58.166 209.872 4.338 345.456 62.497 135.568 181.132 280.801 341.1 403.55z" opacity=".8"/><path d="M1044.35 181.875c122.75-159.969 199.75-330.958 225.03-478.082 25.29-147.141-1.17-270.32-85.22-334.807-84.04-64.487-209.868-58.166-345.451 4.338-135.569 62.496-280.802 181.131-403.55 341.1C312.41-125.607 235.407 45.382 210.127 192.507c-25.282 147.14 1.179 270.319 85.221 334.806 84.041 64.488 209.872 58.167 345.455-4.337 135.568-62.497 280.802-181.132 403.547-341.101z" opacity=".8"/><path d="M1105.91 63.742c60.64-192.304 74.51-379.318 47.95-526.216-26.57-146.914-93.56-253.614-194.594-285.468-101.029-31.855-217.109 17.121-323.138 122.228-106.017 105.095-201.916 266.248-262.549 458.552-60.634 192.304-74.511 379.318-47.947 526.216 26.567 146.914 93.563 253.614 194.592 285.469 101.029 31.854 217.109-17.122 323.138-122.229C949.38 417.199 1045.28 256.046 1105.91 63.742z" opacity=".8"/><path d="M855.901-416.908c-192.304-60.633-379.318-74.511-526.216-47.946-146.914 26.567-253.614 93.562-285.468 194.591-31.855 101.03 17.122 217.11 122.228 323.139C271.54 158.893 432.693 254.792 624.997 315.425c192.304 60.634 379.323 74.511 526.213 47.947 146.92-26.567 253.62-93.563 285.47-194.592 31.86-101.03-17.12-217.109-122.23-323.138-105.09-106.018-266.24-201.917-458.549-262.55z" opacity=".8"/><path d="M917.5 288.281c178.85-93.105 320.91-215.531 405.99-338.188 85.1-122.669 113.18-245.49 64.26-339.453-48.91-93.963-165.62-141.413-314.92-142.065-149.278-.652-331.041 45.489-509.895 138.595C384.082-299.725 242.03-177.299 156.941-54.643 71.843 68.027 43.768 190.848 92.681 284.811c48.915 93.963 165.627 141.412 314.923 142.065 149.279.652 331.042-45.489 509.896-138.595z" opacity=".8"/><path d="M1080.59-228.375C987.484-407.228 865.057-549.28 742.401-634.369c-122.67-85.098-245.491-113.173-339.454-64.259-93.962 48.914-141.412 165.626-142.064 314.922-.652 149.279 45.489 331.042 138.594 509.896 93.106 178.853 215.532 320.905 338.188 405.994 122.67 85.098 245.491 113.173 339.455 64.259 93.96-48.914 141.41-165.626 142.06-314.922.66-149.279-45.49-331.042-138.59-509.896z" opacity=".8"/><path d="M774.125 329.941c200.869-17.574 378.955-76.32 504.505-157.078C1404.2 92.097 1477.14-10.631 1467.9-116.16c-9.23-105.529-98.9-194.03-236.58-251.766-137.67-57.729-323.251-84.658-524.12-67.084-200.869 17.574-378.958 76.32-504.509 157.077C77.127-197.166 4.188-94.438 13.421 11.091c9.232 105.529 98.902 194.03 236.583 251.766 137.667 57.729 323.251 84.658 524.121 67.084z" opacity=".8"/><path d="M1122.51-84.976c-17.58-200.869-76.32-378.958-157.08-504.508-80.767-125.565-183.495-198.504-289.024-189.272-105.529 9.233-194.03 98.903-251.766 236.584-57.729 137.667-84.657 323.252-67.084 524.12 17.574 200.87 76.32 378.959 157.078 504.509C595.4 612.021 698.128 684.961 803.657 675.728c105.529-9.232 194.03-98.902 251.763-236.584 57.73-137.666 84.66-323.251 67.09-524.12z" opacity=".8"/><path d="M494.143 241.948c154.462 129.609 321.93 213.998 467.812 245.671 145.895 31.677 270.115 10.613 338.205-70.536 68.09-81.148 67.27-207.134 10.74-345.315-56.53-138.166-168.72-288.435-323.178-418.045C833.26-475.886 665.792-560.274 519.91-591.948c-145.898-31.676-270.114-10.613-338.205 70.536-68.092 81.149-67.266 207.135-10.735 345.315 56.524 138.166 168.711 288.436 323.173 418.045z" opacity=".8"/><path d="M1033.88 194.903c129.61-154.462 214-321.93 245.67-467.812 31.68-145.898 10.62-270.114-70.53-338.205-81.15-68.092-207.14-67.266-345.319-10.735-138.165 56.524-288.435 168.711-418.044 323.173-129.609 154.462-213.998 321.93-245.671 467.812-31.677 145.898-10.613 270.113 70.535 338.205 81.149 68.092 207.135 67.266 345.316 10.735 138.165-56.524 288.435-168.711 418.043-323.173z" opacity=".8"/><path d="M1100.54 79.568c68.96-189.476 90.98-375.707 70.85-523.623-20.13-147.934-82.41-257.454-181.953-293.685-99.544-36.231-217.649 7.635-328.162 108.017C550.774-529.352 447.937-372.536 378.973-183.06c-68.964 189.477-90.985 375.707-70.854 523.624 20.134 147.934 82.411 257.454 181.955 293.685 99.543 36.231 217.649-7.636 328.162-108.017C928.737 425.861 1031.57 269.045 1100.54 79.568z" opacity=".8"/><path d="M871.732-411.526c-189.476-68.963-375.707-90.985-523.623-70.854-147.934 20.134-257.454 82.411-293.685 181.955-36.23 99.543 7.636 217.65 108.017 328.162C262.812 138.238 419.628 241.075 609.105 310.04c189.476 68.963 375.707 90.985 523.625 70.854 147.93-20.134 257.45-82.411 293.68-181.955 36.23-99.544-7.63-217.65-108.01-328.162-100.37-110.501-257.19-213.338-446.668-282.302z" opacity=".8"/><path d="M902.51 295.677c182.74-85.215 330-201.328 420.36-320.156 90.37-118.841 123.77-240.321 79-336.328-44.76-96.007-159.3-148.502-308.42-155.666-149.11-7.163-332.713 31.006-515.457 116.221-182.745 85.215-330.001 201.329-420.359 320.157C67.266 38.746 33.86 160.226 78.629 256.233c44.768 96.007 159.3 148.502 308.425 155.666 149.109 7.163 332.711-31.006 515.456-116.222z" opacity=".8"/><path d="M1087.98-213.372c-85.22-182.745-201.331-330.002-320.159-420.359-118.842-90.368-240.321-123.774-336.328-79.005-96.007 44.768-148.502 159.3-155.666 308.425-7.163 149.108 31.006 332.711 116.221 515.456 85.215 182.744 201.329 330.001 320.157 420.359 118.841 90.368 240.32 123.774 336.325 79.005 96.01-44.769 148.5-159.3 155.67-308.425 7.16-149.109-31.01-332.712-116.22-515.456z" opacity=".8"/><path d="M757.456 331.043c201.444-8.795 381.924-59.717 510.884-134.921 128.96-75.213 206.31-174.661 201.69-280.493-4.62-105.831-90.34-198.159-225.37-261.846-135.02-63.679-319.254-98.677-520.698-89.882-201.445 8.796-381.927 59.718-510.88 134.922C84.114-225.964 6.762-126.516 11.383-20.685c4.621 105.832 90.345 198.16 225.378 261.846 135.017 63.679 319.25 98.678 520.695 89.882z" opacity=".8"/><path d="M1123.61-68.283c-8.8-201.444-59.72-381.926-134.922-510.88-75.213-128.967-174.661-206.319-280.492-201.698-105.832 4.621-198.16 90.345-261.846 225.377-63.679 135.017-98.678 319.251-89.882 520.695 8.795 201.445 59.717 381.927 134.921 510.88 75.213 128.968 174.662 206.319 280.493 201.698 105.831-4.62 198.159-90.345 261.848-225.377 63.68-135.017 98.67-319.25 89.88-520.695z" opacity=".8"/><path d="M481.569 230.919c148.662 136.223 312.29 227.836 456.651 265.842 144.38 38.011 269.39 22.386 340.96-55.715 71.57-78.102 76.24-204.004 25.79-344.52-50.45-140.499-155.97-295.519-304.63-431.743C851.675-471.44 688.047-563.053 543.686-601.059c-144.377-38.011-269.394-22.386-340.96 55.716-71.567 78.101-76.237 204.003-25.787 344.518 50.443 140.5 155.968 295.52 304.63 431.744z" opacity=".8"/><path d="M1022.85 207.467c136.22-148.662 227.84-312.29 265.84-456.651 38.01-144.377 22.39-269.393-55.71-340.96-78.1-71.567-204.01-76.237-344.521-25.787-140.499 50.443-295.52 155.969-431.743 304.63C320.493-162.639 228.88.989 190.873 145.35c-38.01 144.377-22.385 269.394 55.716 340.96 78.102 71.567 204.004 76.237 344.519 25.788 140.499-50.444 295.52-155.969 431.742-304.631z" opacity=".8"/></g><defs><clipPath id="a"><path fill="#fff" d="M0 679h1480V0H0z"/></clipPath></defs></svg>