<svg xmlns="http://www.w3.org/2000/svg" width="149" height="41" fill="none"><path stroke="#49494A" stroke-linecap="round" stroke-linejoin="round" stroke-width="1.5" d="M31 13.036c0 2.762-1.489 5.25-4.25 5.25 2.761 0 4.25 2.489 4.25 5.25 0-2.761 1.489-5.25 4.25-5.25-2.761 0-4.25-2.488-4.25-5.25zm-7 8c0 1.657-1.593 3.25-3.25 3.25 1.657 0 3.25 1.593 3.25 3.25 0-1.657 1.593-3.25 3.25-3.25-1.657 0-3.25-1.593-3.25-3.25z"/><path fill="#fff" fill-opacity=".25" d="M46.998 14.506a4.7 4.7 0 0 1 1.584.256c.48.17.895.421 1.248.752.362.32.65.72.864 1.2.213.47.335 1.008.367 1.616h-1.504c-.064-.746-.309-1.317-.736-1.712-.415-.394-1.04-.592-1.871-.592a2.95 2.95 0 0 0-1.025.16 2.005 2.005 0 0 0-1.2 1.024c-.117.235-.202.49-.255.768v.016a9.414 9.414 0 0 0-.064.832 61.832 61.832 0 0 0 0 2.848c.02.459.053.779.095.96.118.544.363.97.736 1.28.374.31.955.464 1.744.464.46 0 .849-.053 1.169-.16.32-.107.58-.267.784-.48.202-.213.352-.474.448-.784a4.69 4.69 0 0 0 .175-1.104h1.505c0 .608-.112 1.163-.337 1.664-.213.49-.506.918-.88 1.28a3.987 3.987 0 0 1-1.295.816 4.264 4.264 0 0 1-1.569.288 4.39 4.39 0 0 1-1.584-.288 4.07 4.07 0 0 1-1.295-.848 4.202 4.202 0 0 1-.864-1.328 4.368 4.368 0 0 1-.32-1.696v-3.072c0-.661.1-1.248.303-1.76.203-.522.48-.96.833-1.312a3.587 3.587 0 0 1 1.295-.8 4.572 4.572 0 0 1 1.649-.288zm8.74 3.344c.438 0 .876.043 1.313.128.437.085.832.267 1.184.544.362.267.656.662.88 1.184.224.523.336 1.227.336 2.112s-.112 1.59-.336 2.112c-.224.523-.518.923-.88 1.2a2.732 2.732 0 0 1-1.184.544 6.831 6.831 0 0 1-2.624 0 2.85 2.85 0 0 1-1.2-.544c-.352-.277-.64-.677-.864-1.2-.224-.523-.336-1.227-.336-2.112s.112-1.59.336-2.112c.224-.523.512-.917.864-1.184a2.852 2.852 0 0 1 1.2-.544 7.007 7.007 0 0 1 1.312-.128zm0 6.448c.342 0 .646-.021.913-.064.277-.043.506-.144.688-.304.192-.17.336-.427.432-.768.106-.341.16-.805.16-1.392 0-.523-.043-.939-.128-1.248-.085-.32-.219-.565-.4-.736a1.26 1.26 0 0 0-.672-.336 4.465 4.465 0 0 0-.992-.096c-.384 0-.72.032-1.008.096a1.351 1.351 0 0 0-.688.336c-.17.17-.299.416-.384.736-.085.31-.128.726-.128 1.248 0 .587.048 1.05.144 1.392.107.341.256.598.448.768.192.16.421.262.688.304.277.043.587.064.928.064zm15.624-6.448v7.936h-1.504v-6.432h-3.056v6.432h-1.505v-6.432h-3.055v6.432h-1.505V17.85h10.625zm3.098-3.264v1.504h-1.504v-1.504h1.504zm-1.504 3.2h1.504v8h-1.504v-8zm3.125 8V17.85h1.568v.896h.032c.16-.245.443-.458.848-.64.416-.181.88-.272 1.392-.272.438 0 .875.043 1.312.128.438.085.838.267 1.2.544.363.277.656.677.88 1.2.224.523.336 1.227.336 2.112v3.968h-1.6V21.93c0-.523-.042-.95-.128-1.28-.085-.341-.218-.608-.4-.8a1.34 1.34 0 0 0-.672-.4 3.528 3.528 0 0 0-.944-.112c-.373 0-.704.037-.992.112a1.543 1.543 0 0 0-.72.4 1.926 1.926 0 0 0-.448.768c-.096.31-.144.704-.144 1.184v3.984h-1.52zm16.264 3.248h-6.752v-1.52h5.248v-2.608h-.032c-.16.245-.459.448-.896.608-.427.16-.896.24-1.408.24a7.03 7.03 0 0 1-1.312-.128 2.85 2.85 0 0 1-1.2-.544c-.363-.277-.656-.677-.88-1.2-.224-.533-.336-1.237-.336-2.112 0-.885.112-1.59.336-2.112.234-.523.528-.923.88-1.2a2.698 2.698 0 0 1 1.2-.528 7.007 7.007 0 0 1 1.312-.128c.544 0 1.03.08 1.456.24.427.16.725.373.896.64h.048v-.88h1.44v11.232zm-3.776-4.8c.416 0 .768-.032 1.056-.096a1.59 1.59 0 0 0 .704-.368c.192-.181.33-.432.416-.752.085-.32.128-.725.128-1.216 0-.555-.053-.997-.16-1.328-.096-.33-.24-.581-.432-.752a1.382 1.382 0 0 0-.704-.352 4.682 4.682 0 0 0-.912-.08c-.342 0-.65.021-.928.064-.267.043-.496.15-.688.32-.192.16-.342.41-.448.752-.096.33-.144.79-.144 1.376 0 .523.043.944.128 1.264.085.31.213.555.384.736.17.17.39.288.656.352.266.053.581.08.944.08zm11.55-6.848c0 .405.155.715.464.928a4.44 4.44 0 0 0 1.152.544c.469.15.971.293 1.504.432.544.139 1.04.33 1.488.576.459.245.827.57 1.104.976.288.395.432.918.432 1.568v.144a6.363 6.363 0 0 1-.128.896 2.79 2.79 0 0 1-.512 1.104c-.256.352-.635.662-1.136.928-.491.256-1.163.384-2.016.384a5.803 5.803 0 0 1-1.776-.256 3.934 3.934 0 0 1-1.36-.768 3.422 3.422 0 0 1-.848-1.216c-.203-.48-.304-1.024-.304-1.632v-.224h1.488c.085.896.352 1.552.8 1.968.459.405 1.072.608 1.84.608.277 0 .56-.021.848-.064a2.34 2.34 0 0 0 .784-.256 1.66 1.66 0 0 0 .576-.512c.149-.224.224-.512.224-.864 0-.522-.155-.917-.464-1.184a3.186 3.186 0 0 0-1.136-.656c-.448-.17-.939-.314-1.472-.432a7.177 7.177 0 0 1-1.488-.496 3.295 3.295 0 0 1-1.136-.88c-.298-.373-.448-.896-.448-1.568 0-.47.085-.89.256-1.264.17-.373.41-.688.72-.944a3.1 3.1 0 0 1 1.12-.576 4.803 4.803 0 0 1 1.456-.208c1.099 0 1.984.288 2.656.864.672.566 1.035 1.392 1.088 2.48h-1.488c-.117-.672-.363-1.146-.736-1.424-.373-.277-.864-.416-1.472-.416s-1.109.123-1.504.368c-.384.235-.576.592-.576 1.072zm10.839.464c.437 0 .874.043 1.312.128.437.085.832.267 1.184.544.362.267.656.662.88 1.184.224.523.336 1.227.336 2.112s-.112 1.59-.336 2.112c-.224.523-.518.923-.88 1.2a2.734 2.734 0 0 1-1.184.544 6.838 6.838 0 0 1-2.624 0 2.843 2.843 0 0 1-1.2-.544c-.352-.277-.64-.677-.864-1.2-.224-.523-.336-1.227-.336-2.112s.112-1.59.336-2.112c.224-.523.512-.917.864-1.184a2.845 2.845 0 0 1 1.2-.544 7.004 7.004 0 0 1 1.312-.128zm0 6.448c.341 0 .645-.021.912-.064a1.32 1.32 0 0 0 .688-.304c.192-.17.336-.427.432-.768.106-.341.16-.805.16-1.392 0-.523-.043-.939-.128-1.248-.086-.32-.219-.565-.4-.736a1.262 1.262 0 0 0-.672-.336 4.468 4.468 0 0 0-.992-.096c-.384 0-.72.032-1.008.096a1.348 1.348 0 0 0-.688.336c-.171.17-.299.416-.384.736-.086.31-.128.726-.128 1.248 0 .587.048 1.05.144 1.392.106.341.256.598.448.768.192.16.421.262.688.304.277.043.586.064.928.064zm8.39-6.448c.438 0 .875.043 1.312.128a2.73 2.73 0 0 1 1.184.544c.363.267.656.662.88 1.184.224.523.336 1.227.336 2.112s-.112 1.59-.336 2.112c-.224.523-.517.923-.88 1.2a2.728 2.728 0 0 1-1.184.544 6.823 6.823 0 0 1-2.624 0 2.854 2.854 0 0 1-1.2-.544c-.352-.277-.64-.677-.864-1.2-.224-.523-.336-1.227-.336-2.112s.112-1.59.336-2.112c.224-.523.512-.917.864-1.184a2.856 2.856 0 0 1 1.2-.544 7.012 7.012 0 0 1 1.312-.128zm0 6.448c.342 0 .646-.021.912-.064.278-.043.507-.144.688-.304.192-.17.336-.427.432-.768.107-.341.16-.805.16-1.392 0-.523-.042-.939-.128-1.248-.085-.32-.218-.565-.4-.736a1.255 1.255 0 0 0-.672-.336 4.462 4.462 0 0 0-.992-.096c-.384 0-.72.032-1.008.096a1.355 1.355 0 0 0-.688.336c-.17.17-.298.416-.384.736-.085.31-.128.726-.128 1.248 0 .587.048 1.05.144 1.392.107.341.256.598.448.768.192.16.422.262.688.304.278.043.587.064.928.064zm4.999 1.488V17.85h1.568v.896h.032c.16-.245.443-.458.848-.64.416-.181.88-.272 1.392-.272.437 0 .875.043 1.312.128.437.085.837.267 1.2.544s.656.677.88 1.2c.224.523.336 1.227.336 2.112v3.968h-1.6V21.93c0-.523-.043-.95-.128-1.28-.085-.341-.219-.608-.4-.8a1.343 1.343 0 0 0-.672-.4 3.527 3.527 0 0 0-.944-.112c-.373 0-.704.037-.992.112a1.543 1.543 0 0 0-.72.4 1.93 1.93 0 0 0-.448.768c-.096.31-.144.704-.144 1.184v3.984h-1.52z"/><rect width="148" height="39" x=".5" y=".786" stroke="#49494A" rx="19.5"/></svg>