<svg xmlns="http://www.w3.org/2000/svg" width="428" height="125" fill="none"><path stroke="url(#a)" d="M27.226 97.227c-7.286-7.285-10.022-17.792-8.503-28.934 1.52-11.143 7.295-22.891 16.988-32.584 9.693-9.693 21.442-15.469 32.584-16.988 11.143-1.52 21.649 1.217 28.934 8.503 7.286 7.286 10.023 17.792 8.503 28.934-1.519 11.143-7.295 22.891-16.988 32.584-9.693 9.693-21.441 15.469-32.584 16.988-11.142 1.52-21.648-1.217-28.934-8.503z"/><path stroke="url(#b)" d="M62.23 111.726c10.304 0 19.668-5.494 26.472-14.448 6.805-8.953 11.029-21.345 11.029-35.052 0-13.708-4.224-26.1-11.029-35.053-6.804-8.953-16.168-14.447-26.471-14.447-10.304 0-19.668 5.494-26.473 14.447-6.804 8.953-11.028 21.345-11.028 35.053 0 13.707 4.224 26.099 11.028 35.052 6.805 8.954 16.169 14.448 26.472 14.448z"/><path stroke="url(#c)" d="M12.73 62.226c0 10.303 5.494 19.667 14.448 26.472 8.953 6.804 21.345 11.028 35.052 11.028 13.708 0 26.1-4.224 35.053-11.028 8.953-6.805 14.447-16.169 14.447-26.472 0-10.304-5.494-19.668-14.447-26.472-8.953-6.805-21.345-11.028-35.053-11.028-13.707 0-26.099 4.223-35.052 11.028-8.954 6.804-14.448 16.168-14.448 26.472z"/><path stroke="url(#d)" d="M97.231 97.227c7.286-7.285 10.022-17.792 8.503-28.934-1.52-11.143-7.295-22.891-16.988-32.584-9.693-9.693-21.441-15.469-32.584-16.988-11.143-1.52-21.649 1.217-28.934 8.503-7.286 7.286-10.023 17.792-8.503 28.934 1.52 11.143 7.295 22.891 16.988 32.584 9.693 9.693 21.441 15.469 32.584 16.988 11.142 1.52 21.648-1.217 28.934-8.503z"/><path stroke="url(#e)" d="M97.231 97.227c7.286-7.285 10.022-17.792 8.503-28.934-1.52-11.143-7.295-22.891-16.988-32.584-9.693-9.693-21.441-15.469-32.584-16.988-11.143-1.52-21.649 1.217-28.934 8.503-7.286 7.286-10.023 17.792-8.503 28.934 1.52 11.143 7.295 22.891 16.988 32.584 9.693 9.693 21.441 15.469 32.584 16.988 11.142 1.52 21.648-1.217 28.934-8.503z"/><path stroke="url(#f)" d="M107.093 83.145c4.354-9.338 3.332-20.147-1.906-30.097-5.24-9.952-14.685-19.016-27.108-24.81-12.424-5.792-25.44-7.201-36.43-4.818-10.99 2.383-19.926 8.548-24.28 17.886-4.355 9.338-3.333 20.147 1.905 30.097 5.24 9.951 14.685 19.016 27.108 24.809 12.424 5.793 25.439 7.202 36.43 4.819 10.99-2.383 19.926-8.548 24.281-17.886z"/><g filter="url(#g)"><circle cx="19.5" cy="19.5" r="19.5" fill="url(#h)" fill-opacity=".1" transform="matrix(-1 0 0 1 81.23 43.226)"/></g><g filter="url(#i)"><circle cx="51.5" cy="51.5" r="51.5" fill="url(#j)" fill-opacity=".05" transform="matrix(-1 0 0 1 113.23 11.226)"/></g><g filter="url(#k)"><path fill="url(#l)" d="M48.23 66.329V27.632c0-1.554 1.646-2.555 3.027-1.841L87.66 44.617c1.93.998 1.22 3.915-.953 3.915H68.122c-.631 0-1.229.288-1.622.782L51.926 67.62c-1.222 1.535-3.696.671-3.696-1.291z"/></g><g filter="url(#m)"><path fill="url(#n)" d="M76.23 58.16v38.696c0 1.553-1.645 2.555-3.026 1.841L36.801 79.871c-1.93-.998-1.22-3.915.953-3.915h18.585c.631 0 1.229-.288 1.622-.782l14.574-18.306c1.222-1.536 3.696-.671 3.696 1.291z"/></g><path fill="#fff" d="M153.098 32.587c2.304 0 4.416.341 6.336 1.024s3.584 1.685 4.992 3.008c1.451 1.28 2.603 2.88 3.456 4.8.853 1.877 1.344 4.032 1.472 6.464h-6.016c-.256-2.987-1.237-5.27-2.944-6.848-1.664-1.579-4.16-2.368-7.488-2.368-1.579 0-2.944.213-4.096.64-1.152.384-2.133.939-2.944 1.664a8.013 8.013 0 0 0-1.856 2.432 11.828 11.828 0 0 0-1.024 3.072v.064c-.085.512-.171 1.621-.256 3.328a225.132 225.132 0 0 0-.064 5.632c0 2.005.021 3.925.064 5.76.085 1.835.213 3.115.384 3.84.469 2.176 1.451 3.883 2.944 5.12 1.493 1.237 3.819 1.856 6.976 1.856 1.835 0 3.392-.213 4.672-.64 1.28-.427 2.325-1.067 3.136-1.92.811-.853 1.408-1.899 1.792-3.136.384-1.28.619-2.752.704-4.416h6.016c0 2.432-.448 4.65-1.344 6.656a15.893 15.893 0 0 1-3.52 5.12 15.942 15.942 0 0 1-5.184 3.264c-1.963.768-4.053 1.152-6.272 1.152a17.56 17.56 0 0 1-6.336-1.152 16.282 16.282 0 0 1-5.184-3.392c-1.451-1.493-2.603-3.264-3.456-5.312-.853-2.048-1.28-4.31-1.28-6.784V49.227c0-2.645.405-4.992 1.216-7.04.811-2.09 1.92-3.84 3.328-5.248 1.451-1.408 3.179-2.475 5.184-3.2 2.005-.768 4.203-1.152 6.592-1.152zm19.478 45.12V32.843h6.272v16.704h.128c.64-.981 1.77-1.835 3.392-2.56 1.664-.725 3.52-1.088 5.568-1.088 1.749 0 3.498.17 5.248.512a11.411 11.411 0 0 1 4.8 2.176c1.45 1.11 2.624 2.71 3.52 4.8.896 2.09 1.344 4.907 1.344 8.448v15.872h-6.4V62.283c0-2.09-.171-3.797-.512-5.12-.342-1.365-.875-2.432-1.6-3.2-.683-.768-1.579-1.301-2.688-1.6-1.067-.299-2.326-.448-3.776-.448-1.494 0-2.816.15-3.968.448-1.152.299-2.112.832-2.88 1.6-.768.768-1.366 1.792-1.792 3.072-.384 1.237-.576 2.816-.576 4.736v15.936h-6.08zm53.342-20.224v-5.44h-17.28v-6.08h23.296v25.728h4.288v6.016h-9.472l-.64-3.392h-.192c-.512.939-1.536 1.75-3.072 2.432-1.536.683-3.456 1.024-5.76 1.024-3.755 0-6.635-.981-8.64-2.944-2.005-2.005-3.008-4.544-3.008-7.616 0-3.2 1.195-5.61 3.584-7.232 2.389-1.664 5.589-2.496 9.6-2.496h7.296zm0 5.44h-6.4c-1.365 0-2.539.15-3.52.448-.981.299-1.792.683-2.432 1.152-.597.427-1.045.939-1.344 1.536a3.942 3.942 0 0 0-.384 1.664c0 1.11.341 2.027 1.024 2.752.725.725 1.536 1.216 2.432 1.472a9.53 9.53 0 0 0 2.624.384c.299 0 .832-.021 1.6-.064.811-.085 1.728-.363 2.752-.832a7.25 7.25 0 0 0 2.56-2.112c.725-.896 1.088-1.963 1.088-3.2v-3.2zm19.521-30.016v6.016h-6.016v-6.016h6.016zm-6.016 12.8h6.016v32h-6.016v-32zm10.58 32V45.963h6.272v3.584h.128c.64-.981 1.771-1.835 3.392-2.56 1.664-.725 3.52-1.088 5.568-1.088 1.749 0 3.499.17 5.248.512a11.411 11.411 0 0 1 4.8 2.176c1.451 1.11 2.624 2.71 3.52 4.8.896 2.09 1.344 4.907 1.344 8.448v15.872h-6.4V62.283c0-2.09-.171-3.797-.512-5.12-.341-1.365-.875-2.432-1.6-3.2-.683-.768-1.579-1.301-2.688-1.6-1.067-.299-2.325-.448-3.776-.448-1.493 0-2.816.15-3.968.448-1.152.299-2.112.832-2.88 1.6-.768.768-1.365 1.792-1.792 3.072-.384 1.237-.576 2.816-.576 4.736v15.936h-6.08zM353.99 45.963h6.272l-6.784 31.744h-10.944l-4.224-25.728h-.896l-4.16 25.728H322.31l-6.784-31.744h6.272l5.504 25.728h.64l4.224-25.728h11.456l4.224 25.728h.64l5.504-25.728zm27.378 11.52v-5.44h-17.28v-6.08h23.296v25.728h4.288v6.016H382.2l-.64-3.392h-.192c-.512.939-1.536 1.75-3.072 2.432-1.536.683-3.456 1.024-5.76 1.024-3.755 0-6.635-.981-8.64-2.944-2.005-2.005-3.008-4.544-3.008-7.616 0-3.2 1.195-5.61 3.584-7.232 2.389-1.664 5.589-2.496 9.6-2.496h7.296zm0 5.44h-6.4c-1.365 0-2.539.15-3.52.448-.981.299-1.792.683-2.432 1.152-.597.427-1.045.939-1.344 1.536a3.942 3.942 0 0 0-.384 1.664c0 1.11.341 2.027 1.024 2.752.725.725 1.536 1.216 2.432 1.472a9.53 9.53 0 0 0 2.624.384c.299 0 .832-.021 1.6-.064.811-.085 1.728-.363 2.752-.832a7.25 7.25 0 0 0 2.56-2.112c.725-.896 1.088-1.963 1.088-3.2v-3.2zm19.265-16.96v3.52h.192c.683-1.067 1.877-1.92 3.584-2.56 1.707-.64 3.648-.96 5.824-.96 1.707 0 3.435.17 5.184.512a10.392 10.392 0 0 1 4.8 2.112c1.451 1.11 2.624 2.71 3.52 4.8.939 2.09 1.408 4.907 1.408 8.448 0 3.499-.448 6.315-1.344 8.448-.896 2.09-2.069 3.69-3.52 4.8a11.409 11.409 0 0 1-4.8 2.176 27.339 27.339 0 0 1-5.248.512c-2.048 0-3.947-.32-5.696-.96-1.707-.64-2.88-1.45-3.52-2.432h-.128v16.448h-6.016V45.963h5.76zm9.344 25.728c1.451 0 2.709-.107 3.776-.32 1.067-.256 1.941-.725 2.624-1.408.683-.725 1.195-1.707 1.536-2.944.341-1.28.512-2.965.512-5.056 0-2.347-.213-4.181-.64-5.504-.384-1.365-.96-2.368-1.728-3.008-.768-.683-1.707-1.11-2.816-1.28-1.067-.17-2.283-.256-3.648-.256-1.365 0-2.603.107-3.712.32a5.492 5.492 0 0 0-2.752 1.408c-.768.683-1.365 1.685-1.792 3.008-.384 1.323-.576 3.093-.576 5.312 0 1.963.171 3.584.512 4.864.341 1.28.875 2.283 1.6 3.008.768.683 1.728 1.173 2.88 1.472 1.152.256 2.56.384 4.224.384z"/><g filter="url(#o)"><path fill="url(#p)" d="M284.942 66.041V29.89c0-1.452 1.538-2.388 2.827-1.72l34.01 17.587c1.803.933 1.14 3.658-.89 3.658h-17.363a1.94 1.94 0 0 0-1.516.73l-13.615 17.103c-1.142 1.434-3.453.627-3.453-1.207z"/></g><g filter="url(#q)"><path fill="url(#r)" d="M311.097 58.41v36.15a1.938 1.938 0 0 1-2.827 1.722l-34.009-17.588c-1.803-.933-1.14-3.658.889-3.658h17.363a1.94 1.94 0 0 0 1.516-.731l13.615-17.102c1.142-1.435 3.453-.627 3.453 1.206z"/></g><defs><linearGradient id="a" x1="89.098" x2="35.358" y1="89.096" y2="35.355" gradientUnits="userSpaceOnUse"><stop stop-color="#2A2A2A"/><stop offset="1" stop-color="#2A2A2A" stop-opacity="0"/></linearGradient><linearGradient id="b" x1="24.23" x2="100.23" y1="62.226" y2="62.226" gradientUnits="userSpaceOnUse"><stop stop-color="#2A2A2A"/><stop offset="1" stop-color="#2A2A2A" stop-opacity="0"/></linearGradient><linearGradient id="c" x1="62.23" x2="62.23" y1="24.226" y2="100.226" gradientUnits="userSpaceOnUse"><stop stop-color="#2A2A2A"/><stop offset="1" stop-color="#2A2A2A" stop-opacity="0"/></linearGradient><linearGradient id="d" x1="35.359" x2="89.099" y1="89.096" y2="35.355" gradientUnits="userSpaceOnUse"><stop stop-color="#2A2A2A"/><stop offset="1" stop-color="#2A2A2A" stop-opacity="0"/></linearGradient><linearGradient id="e" x1="35.359" x2="89.099" y1="89.096" y2="35.355" gradientUnits="userSpaceOnUse"><stop stop-color="#2A2A2A"/><stop offset="1" stop-color="#2A2A2A" stop-opacity="0"/></linearGradient><linearGradient id="f" x1="46.171" x2="78.29" y1="96.665" y2="27.786" gradientUnits="userSpaceOnUse"><stop stop-color="#2A2A2A"/><stop offset="1" stop-color="#2A2A2A" stop-opacity="0"/></linearGradient><linearGradient id="h" x1="37.757" x2="5.527" y1=".935" y2="20.159" gradientUnits="userSpaceOnUse"><stop stop-color="#E1E0E1"/><stop offset="0" stop-color="#fff"/><stop offset="1" stop-color="#3E63A5"/></linearGradient><linearGradient id="j" x1="99.718" x2="14.597" y1="2.47" y2="53.241" gradientUnits="userSpaceOnUse"><stop stop-color="#E1E0E1"/><stop offset="0" stop-color="#fff"/><stop offset="1" stop-color="#3E63A5"/></linearGradient><linearGradient id="l" x1="49.728" x2="89.01" y1="25.378" y2="48.302" gradientUnits="userSpaceOnUse"><stop offset="0" stop-color="#CFCAEF"/><stop offset="1" stop-color="#3E63A5"/></linearGradient><linearGradient id="n" x1="74.733" x2="35.451" y1="99.11" y2="76.186" gradientUnits="userSpaceOnUse"><stop offset="0" stop-color="#594EA0"/><stop offset="1" stop-color="#3E63A5"/></linearGradient><linearGradient id="p" x1="286.341" x2="323.04" y1="27.783" y2="49.2" gradientUnits="userSpaceOnUse"><stop offset="0" stop-color="#CFCAEF"/><stop offset="1" stop-color="#3E63A5"/></linearGradient><linearGradient id="r" x1="309.698" x2="272.999" y1="96.667" y2="75.251" gradientUnits="userSpaceOnUse"><stop offset="0" stop-color="#594EA0"/><stop offset="1" stop-color="#3E63A5"/></linearGradient><filter id="g" width="39" height="40" x="42.23" y="43.226" color-interpolation-filters="sRGB" filterUnits="userSpaceOnUse"><feFlood flood-opacity="0" result="BackgroundImageFix"/><feBlend in="SourceGraphic" in2="BackgroundImageFix" result="shape"/><feColorMatrix in="SourceAlpha" result="hardAlpha" values="0 0 0 0 0 0 0 0 0 0 0 0 0 0 0 0 0 0 127 0"/><feOffset dy="1"/><feGaussianBlur stdDeviation=".5"/><feComposite in2="hardAlpha" k2="-1" k3="1" operator="arithmetic"/><feColorMatrix values="0 0 0 0 0.3875 0 0 0 0 0.3875 0 0 0 0 0.3875 0 0 0 1 0"/><feBlend in2="shape" result="effect1_innerShadow_412_1852"/></filter><filter id="i" width="103" height="104" x="10.23" y="11.226" color-interpolation-filters="sRGB" filterUnits="userSpaceOnUse"><feFlood flood-opacity="0" result="BackgroundImageFix"/><feBlend in="SourceGraphic" in2="BackgroundImageFix" result="shape"/><feColorMatrix in="SourceAlpha" result="hardAlpha" values="0 0 0 0 0 0 0 0 0 0 0 0 0 0 0 0 0 0 127 0"/><feOffset dy="1"/><feGaussianBlur stdDeviation=".5"/><feComposite in2="hardAlpha" k2="-1" k3="1" operator="arithmetic"/><feColorMatrix values="0 0 0 0 0.3875 0 0 0 0 0.3875 0 0 0 0 0.3875 0 0 0 1 0"/><feBlend in2="shape" result="effect1_innerShadow_412_1852"/></filter><filter id="k" width="48.555" height="50.85" x="44.23" y="25.556" color-interpolation-filters="sRGB" filterUnits="userSpaceOnUse"><feFlood flood-opacity="0" result="BackgroundImageFix"/><feColorMatrix in="SourceAlpha" result="hardAlpha" values="0 0 0 0 0 0 0 0 0 0 0 0 0 0 0 0 0 0 127 0"/><feOffset dy="4"/><feGaussianBlur stdDeviation="2"/><feComposite in2="hardAlpha" operator="out"/><feColorMatrix values="0 0 0 0 0 0 0 0 0 0 0 0 0 0 0 0 0 0 0.45 0"/><feBlend in2="BackgroundImageFix" result="effect1_dropShadow_412_1852"/><feBlend in="SourceGraphic" in2="effect1_dropShadow_412_1852" result="shape"/><feColorMatrix in="SourceAlpha" result="hardAlpha" values="0 0 0 0 0 0 0 0 0 0 0 0 0 0 0 0 0 0 127 0"/><feOffset dy=".922"/><feGaussianBlur stdDeviation=".23"/><feComposite in2="hardAlpha" k2="-1" k3="1" operator="arithmetic"/><feColorMatrix values="0 0 0 0 0.596078 0 0 0 0 0.690196 0 0 0 0 0.862745 0 0 0 1 0"/><feBlend in2="shape" result="effect2_innerShadow_412_1852"/><feColorMatrix in="SourceAlpha" result="hardAlpha" values="0 0 0 0 0 0 0 0 0 0 0 0 0 0 0 0 0 0 127 0"/><feOffset dy=".922"/><feGaussianBlur stdDeviation="1.728"/><feComposite in2="hardAlpha" k2="-1" k3="1" operator="arithmetic"/><feColorMatrix values="0 0 0 0 0.013316 0 0 0 0 0.0946971 0 0 0 0 0.245833 0 0 0 0.7 0"/><feBlend in2="effect2_innerShadow_412_1852" result="effect3_innerShadow_412_1852"/></filter><filter id="m" width="48.555" height="52.85" x="31.676" y="54.081" color-interpolation-filters="sRGB" filterUnits="userSpaceOnUse"><feFlood flood-opacity="0" result="BackgroundImageFix"/><feColorMatrix in="SourceAlpha" result="hardAlpha" values="0 0 0 0 0 0 0 0 0 0 0 0 0 0 0 0 0 0 127 0"/><feOffset dy="4"/><feGaussianBlur stdDeviation="2"/><feComposite in2="hardAlpha" operator="out"/><feColorMatrix values="0 0 0 0 0 0 0 0 0 0 0 0 0 0 0 0 0 0 0.45 0"/><feBlend in2="BackgroundImageFix" result="effect1_dropShadow_412_1852"/><feBlend in="SourceGraphic" in2="effect1_dropShadow_412_1852" result="shape"/><feColorMatrix in="SourceAlpha" result="hardAlpha" values="0 0 0 0 0 0 0 0 0 0 0 0 0 0 0 0 0 0 127 0"/><feOffset dy=".922"/><feGaussianBlur stdDeviation=".23"/><feComposite in2="hardAlpha" k2="-1" k3="1" operator="arithmetic"/><feColorMatrix values="0 0 0 0 0.596078 0 0 0 0 0.690196 0 0 0 0 0.862745 0 0 0 1 0"/><feBlend in2="shape" result="effect2_innerShadow_412_1852"/><feColorMatrix in="SourceAlpha" result="hardAlpha" values="0 0 0 0 0 0 0 0 0 0 0 0 0 0 0 0 0 0 127 0"/><feOffset dy=".922"/><feGaussianBlur stdDeviation="1.728"/><feComposite in2="hardAlpha" k2="-1" k3="1" operator="arithmetic"/><feColorMatrix values="0 0 0 0 0.013316 0 0 0 0 0.0946971 0 0 0 0 0.245833 0 0 0 0.7 0"/><feBlend in2="effect2_innerShadow_412_1852" result="effect3_innerShadow_412_1852"/><feColorMatrix in="SourceAlpha" result="hardAlpha" values="0 0 0 0 0 0 0 0 0 0 0 0 0 0 0 0 0 0 127 0"/><feOffset dx="2" dy="-2"/><feGaussianBlur stdDeviation="2"/><feComposite in2="hardAlpha" k2="-1" k3="1" operator="arithmetic"/><feColorMatrix values="0 0 0 0 0 0 0 0 0 0 0 0 0 0 0 0 0 0 0.45 0"/><feBlend in2="effect3_innerShadow_412_1852" result="effect4_innerShadow_412_1852"/></filter><filter id="o" width="45.361" height="47.506" x="281.204" y="27.95" color-interpolation-filters="sRGB" filterUnits="userSpaceOnUse"><feFlood flood-opacity="0" result="BackgroundImageFix"/><feColorMatrix in="SourceAlpha" result="hardAlpha" values="0 0 0 0 0 0 0 0 0 0 0 0 0 0 0 0 0 0 127 0"/><feOffset dy="3.737"/><feGaussianBlur stdDeviation="1.868"/><feComposite in2="hardAlpha" operator="out"/><feColorMatrix values="0 0 0 0 0 0 0 0 0 0 0 0 0 0 0 0 0 0 0.45 0"/><feBlend in2="BackgroundImageFix" result="effect1_dropShadow_412_1852"/><feBlend in="SourceGraphic" in2="effect1_dropShadow_412_1852" result="shape"/><feColorMatrix in="SourceAlpha" result="hardAlpha" values="0 0 0 0 0 0 0 0 0 0 0 0 0 0 0 0 0 0 127 0"/><feOffset dy=".861"/><feGaussianBlur stdDeviation=".215"/><feComposite in2="hardAlpha" k2="-1" k3="1" operator="arithmetic"/><feColorMatrix values="0 0 0 0 0.596078 0 0 0 0 0.690196 0 0 0 0 0.862745 0 0 0 1 0"/><feBlend in2="shape" result="effect2_innerShadow_412_1852"/><feColorMatrix in="SourceAlpha" result="hardAlpha" values="0 0 0 0 0 0 0 0 0 0 0 0 0 0 0 0 0 0 127 0"/><feOffset dy=".861"/><feGaussianBlur stdDeviation="1.614"/><feComposite in2="hardAlpha" k2="-1" k3="1" operator="arithmetic"/><feColorMatrix values="0 0 0 0 0.013316 0 0 0 0 0.0946971 0 0 0 0 0.245833 0 0 0 0.7 0"/><feBlend in2="effect2_innerShadow_412_1852" result="effect3_innerShadow_412_1852"/></filter><filter id="q" width="45.361" height="49.375" x="269.474" y="54.6" color-interpolation-filters="sRGB" filterUnits="userSpaceOnUse"><feFlood flood-opacity="0" result="BackgroundImageFix"/><feColorMatrix in="SourceAlpha" result="hardAlpha" values="0 0 0 0 0 0 0 0 0 0 0 0 0 0 0 0 0 0 127 0"/><feOffset dy="3.737"/><feGaussianBlur stdDeviation="1.868"/><feComposite in2="hardAlpha" operator="out"/><feColorMatrix values="0 0 0 0 0 0 0 0 0 0 0 0 0 0 0 0 0 0 0.45 0"/><feBlend in2="BackgroundImageFix" result="effect1_dropShadow_412_1852"/><feBlend in="SourceGraphic" in2="effect1_dropShadow_412_1852" result="shape"/><feColorMatrix in="SourceAlpha" result="hardAlpha" values="0 0 0 0 0 0 0 0 0 0 0 0 0 0 0 0 0 0 127 0"/><feOffset dy=".861"/><feGaussianBlur stdDeviation=".215"/><feComposite in2="hardAlpha" k2="-1" k3="1" operator="arithmetic"/><feColorMatrix values="0 0 0 0 0.596078 0 0 0 0 0.690196 0 0 0 0 0.862745 0 0 0 1 0"/><feBlend in2="shape" result="effect2_innerShadow_412_1852"/><feColorMatrix in="SourceAlpha" result="hardAlpha" values="0 0 0 0 0 0 0 0 0 0 0 0 0 0 0 0 0 0 127 0"/><feOffset dy=".861"/><feGaussianBlur stdDeviation="1.614"/><feComposite in2="hardAlpha" k2="-1" k3="1" operator="arithmetic"/><feColorMatrix values="0 0 0 0 0.013316 0 0 0 0 0.0946971 0 0 0 0 0.245833 0 0 0 0.7 0"/><feBlend in2="effect2_innerShadow_412_1852" result="effect3_innerShadow_412_1852"/><feColorMatrix in="SourceAlpha" result="hardAlpha" values="0 0 0 0 0 0 0 0 0 0 0 0 0 0 0 0 0 0 127 0"/><feOffset dx="1.868" dy="-1.868"/><feGaussianBlur stdDeviation="1.868"/><feComposite in2="hardAlpha" k2="-1" k3="1" operator="arithmetic"/><feColorMatrix values="0 0 0 0 0 0 0 0 0 0 0 0 0 0 0 0 0 0 0.45 0"/><feBlend in2="effect3_innerShadow_412_1852" result="effect4_innerShadow_412_1852"/></filter></defs></svg>